<svg width="45" height="45" viewBox="0 0 45 45" fill="none" xmlns="http://www.w3.org/2000/svg">
<rect width="45" height="45" rx="5.12626" fill="#FFFEFC"/>
<path d="M13.3021 28.9052V22.3356C13.3021 21.9634 13.428 21.6513 13.6799 21.3995C13.9317 21.1476 14.2438 21.0217 14.616 21.0217C14.9883 21.0217 15.3004 21.1476 15.5522 21.3995C15.804 21.6513 15.93 21.9634 15.93 22.3356V28.9052C15.93 29.2775 15.804 29.5896 15.5522 29.8414C15.3004 30.0932 14.9883 30.2192 14.616 30.2192C14.2438 30.2192 13.9317 30.0932 13.6799 29.8414C13.428 29.5896 13.3021 29.2775 13.3021 28.9052ZM21.1856 28.9052V22.3356C21.1856 21.9634 21.3116 21.6513 21.5634 21.3995C21.8152 21.1476 22.1273 21.0217 22.4996 21.0217C22.8718 21.0217 23.1839 21.1476 23.4357 21.3995C23.6876 21.6513 23.8135 21.9634 23.8135 22.3356V28.9052C23.8135 29.2775 23.6876 29.5896 23.4357 29.8414C23.1839 30.0932 22.8718 30.2192 22.4996 30.2192C22.1273 30.2192 21.8152 30.0932 21.5634 29.8414C21.3116 29.5896 21.1856 29.2775 21.1856 28.9052ZM10.6743 35.4748C10.302 35.4748 9.98994 35.3489 9.7381 35.0971C9.48627 34.8453 9.36035 34.5332 9.36035 34.1609C9.36035 33.7886 9.48627 33.4766 9.7381 33.2247C9.98994 32.9729 10.302 32.847 10.6743 32.847H34.3248C34.6971 32.847 35.0092 32.9729 35.261 33.2247C35.5128 33.4766 35.6388 33.7886 35.6388 34.1609C35.6388 34.5332 35.5128 34.8453 35.261 35.0971C35.0092 35.3489 34.6971 35.4748 34.3248 35.4748H10.6743ZM29.0692 28.9052V22.3356C29.0692 21.9634 29.1951 21.6513 29.4469 21.3995C29.6987 21.1476 30.0108 21.0217 30.3831 21.0217C30.7554 21.0217 31.0674 21.1476 31.3192 21.3995C31.5711 21.6513 31.697 21.9634 31.697 22.3356V28.9052C31.697 29.2775 31.5711 29.5896 31.3192 29.8414C31.0674 30.0932 30.7554 30.2192 30.3831 30.2192C30.0108 30.2192 29.6987 30.0932 29.4469 29.8414C29.1951 29.5896 29.0692 29.2775 29.0692 28.9052ZM34.3248 18.3939H10.5429C10.2144 18.3939 9.93519 18.2789 9.70526 18.049C9.47532 17.819 9.36035 17.5398 9.36035 17.2113V16.4887C9.36035 16.2478 9.42057 16.0398 9.54102 15.8646C9.66146 15.6894 9.82022 15.547 10.0173 15.4375L21.317 9.78769C21.6893 9.6125 22.0835 9.5249 22.4996 9.5249C22.9156 9.5249 23.3098 9.6125 23.6821 9.78769L34.9161 15.4047C35.157 15.5142 35.3377 15.6784 35.4581 15.8974C35.5785 16.1164 35.6388 16.3463 35.6388 16.5872V17.0799C35.6388 17.4522 35.5128 17.7643 35.261 18.0161C35.0092 18.268 34.6971 18.3939 34.3248 18.3939Z" fill="#808080"/>
</svg>
