<svg width="46" height="45" viewBox="0 0 46 45" fill="none" xmlns="http://www.w3.org/2000/svg">
<rect x="0.5" width="45" height="45" rx="5.12626" fill="#FFFEFC"/>
<path d="M24.75 24.25H23.875V19.4375C23.875 19.1958 23.6792 19 23.4375 19H22.6948C22.4356 19 22.1824 19.0766 21.967 19.2204L21.1286 19.7793C21.0808 19.8111 21.0397 19.8521 21.0077 19.8998C20.9757 19.9475 20.9535 20.0011 20.9422 20.0574C20.9309 20.1137 20.9309 20.1717 20.942 20.228C20.9532 20.2844 20.9753 20.338 21.0072 20.3858L21.4928 21.1137C21.5246 21.1615 21.5656 21.2026 21.6133 21.2345C21.661 21.2665 21.7146 21.2888 21.7709 21.3001C21.8272 21.3113 21.8852 21.3114 21.9416 21.3002C21.9979 21.2891 22.0515 21.267 22.0993 21.2351L22.125 21.2181V24.25H21.25C21.0083 24.25 20.8125 24.4458 20.8125 24.6875V25.5625C20.8125 25.8042 21.0083 26 21.25 26H24.75C24.9917 26 25.1875 25.8042 25.1875 25.5625V24.6875C25.1875 24.4458 24.9917 24.25 24.75 24.25ZM38.75 12H7.25C6.28367 12 5.5 12.7837 5.5 13.75V31.25C5.5 32.2163 6.28367 33 7.25 33H38.75C39.7163 33 40.5 32.2163 40.5 31.25V13.75C40.5 12.7837 39.7163 12 38.75 12ZM8.125 30.375V26.875C10.0582 26.875 11.625 28.4418 11.625 30.375H8.125ZM8.125 18.125V14.625H11.625C11.625 16.5582 10.0582 18.125 8.125 18.125ZM23 28.625C20.1005 28.625 17.75 25.8824 17.75 22.5C17.75 19.117 20.1005 16.375 23 16.375C25.8995 16.375 28.25 19.117 28.25 22.5C28.25 25.8835 25.8984 28.625 23 28.625ZM37.875 30.375H34.375C34.375 28.4418 35.9418 26.875 37.875 26.875V30.375ZM37.875 18.125C35.9418 18.125 34.375 16.5582 34.375 14.625H37.875V18.125Z" fill="#808080"/>
</svg>
