<svg width="18" height="19" viewBox="0 0 18 19" fill="none" xmlns="http://www.w3.org/2000/svg">
<mask id="mask0_364_200" style="mask-type:alpha" maskUnits="userSpaceOnUse" x="0" y="0" width="18" height="19">
<rect y="0.750977" width="17.5" height="17.5" fill="#D9D9D9"/>
</mask>
<g mask="url(#mask0_364_200)">
<path d="M9.47982 9.20947V6.58447C9.47982 6.37788 9.40994 6.2047 9.27018 6.06494C9.13043 5.92518 8.95725 5.85531 8.75065 5.85531C8.54405 5.85531 8.37088 5.92518 8.23112 6.06494C8.09136 6.2047 8.02148 6.37788 8.02148 6.58447V9.48291C8.02148 9.58013 8.03971 9.67432 8.07617 9.76546C8.11263 9.85661 8.16732 9.93864 8.24023 10.0116L10.6465 12.4178C10.7802 12.5515 10.9503 12.6183 11.1569 12.6183C11.3635 12.6183 11.5336 12.5515 11.6673 12.4178C11.801 12.2841 11.8678 12.114 11.8678 11.9074C11.8678 11.7008 11.801 11.5307 11.6673 11.397L9.47982 9.20947ZM8.75065 16.7928C7.74197 16.7928 6.79405 16.6014 5.9069 16.2186C5.01975 15.8358 4.24805 15.3162 3.5918 14.66C2.93555 14.0037 2.41602 13.232 2.0332 12.3449C1.65039 11.4577 1.45898 10.5098 1.45898 9.50114C1.45898 8.49246 1.65039 7.54454 2.0332 6.65739C2.41602 5.77024 2.93555 4.99853 3.5918 4.34228C4.24805 3.68604 5.01975 3.1665 5.9069 2.78369C6.79405 2.40088 7.74197 2.20947 8.75065 2.20947C9.75933 2.20947 10.7072 2.40088 11.5944 2.78369C12.4816 3.1665 13.2533 3.68604 13.9095 4.34228C14.5658 4.99853 15.0853 5.77024 15.4681 6.65739C15.8509 7.54454 16.0423 8.49246 16.0423 9.50114C16.0423 10.5098 15.8509 11.4577 15.4681 12.3449C15.0853 13.232 14.5658 14.0037 13.9095 14.66C13.2533 15.3162 12.4816 15.8358 11.5944 16.2186C10.7072 16.6014 9.75933 16.7928 8.75065 16.7928Z" fill="#333333"/>
</g>
</svg>
