<svg width="19" height="20" viewBox="0 0 19 20" fill="none" xmlns="http://www.w3.org/2000/svg">
<mask id="mask0_481_6408" style="mask-type:alpha" maskUnits="userSpaceOnUse" x="0" y="0" width="19" height="20">
<rect y="0.169922" width="19" height="19" fill="#D9D9D9"/>
</mask>
<g mask="url(#mask0_481_6408)">
<path d="M9.49935 12.5C9.39379 12.5 9.29484 12.4835 9.20247 12.4505C9.11011 12.4175 9.02435 12.3614 8.94518 12.2823L6.09518 9.43226C5.93685 9.27393 5.86098 9.0892 5.86758 8.87809C5.87418 8.66698 5.95004 8.48226 6.09518 8.32393C6.25352 8.16559 6.44154 8.08313 6.65924 8.07653C6.87695 8.06993 7.06497 8.1458 7.22331 8.30413L8.70768 9.78851V4.12809C8.70768 3.90379 8.78355 3.71577 8.93529 3.56403C9.08702 3.41229 9.27504 3.33643 9.49935 3.33643C9.72365 3.33643 9.91168 3.41229 10.0634 3.56403C10.2151 3.71577 10.291 3.90379 10.291 4.12809V9.78851L11.7754 8.30413C11.9337 8.1458 12.1217 8.06993 12.3395 8.07653C12.5572 8.08313 12.7452 8.16559 12.9035 8.32393C13.0487 8.48226 13.1245 8.66698 13.1311 8.87809C13.1377 9.0892 13.0618 9.27393 12.9035 9.43226L10.0535 12.2823C9.97435 12.3614 9.88859 12.4175 9.79622 12.4505C9.70386 12.4835 9.6049 12.5 9.49935 12.5ZM4.74935 16.0031C4.31393 16.0031 3.94119 15.8481 3.63112 15.538C3.32105 15.2279 3.16602 14.8552 3.16602 14.4198V12.8364C3.16602 12.6121 3.24188 12.4241 3.39362 12.2724C3.54536 12.1206 3.73338 12.0448 3.95768 12.0448C4.18199 12.0448 4.37001 12.1206 4.52174 12.2724C4.67348 12.4241 4.74935 12.6121 4.74935 12.8364V14.4198H14.2493V12.8364C14.2493 12.6121 14.3252 12.4241 14.477 12.2724C14.6287 12.1206 14.8167 12.0448 15.041 12.0448C15.2653 12.0448 15.4533 12.1206 15.6051 12.2724C15.7568 12.4241 15.8327 12.6121 15.8327 12.8364V14.4198C15.8327 14.8552 15.6776 15.2279 15.3676 15.538C15.0575 15.8481 14.6848 16.0031 14.2493 16.0031H4.74935Z" fill="#F9F7F0"/>
</g>
</svg>
