<svg width="75" height="39" viewBox="0 0 75 39" fill="none" xmlns="http://www.w3.org/2000/svg">
<g clip-path="url(#clip0_74_15083)">
<mask id="mask0_74_15083" style="mask-type:luminance" maskUnits="userSpaceOnUse" x="-288" y="-161" width="642" height="361">
<path d="M-287.209 -160.81H353.656V199.677H-287.209V-160.81Z" fill="white"/>
</mask>
<g mask="url(#mask0_74_15083)">
<path d="M37.4951 4.74886C34.6636 5.03391 32.9333 6.38073 32.2944 8.78931C33.1596 9.54633 34.8899 9.96924 37.4951 10.0577C40.1103 10.0183 41.6927 9.2516 41.7225 7.48188C41.5552 5.52558 39.658 4.67009 37.4951 4.74886ZM37.8292 0.157665C42.7548 0.157665 46.7459 3.46112 46.7459 7.54096C46.7459 11.6208 42.7548 14.0981 37.8292 14.0981C32.9726 14 29.5907 12.4172 27.6738 9.34974C28.7059 3.52988 32.0978 0.47209 37.8292 0.157665Z" fill="black"/>
<path d="M27.2984 11.2862C28.7533 15.4742 32.7844 17.8044 36.923 17.8044C40.354 17.8044 42.635 16.32 43.8247 14.0783L47.6688 16.4869C46.3317 19.7707 42.35 22.1499 37.6603 22.1499C31.8598 22.1499 26.8951 18.2466 27.2984 11.4535V11.2862Z" fill="#00C252"/>
<path d="M27.5692 35.4366C28.9901 37.1953 30.3412 37.1603 31.4357 36.6826C32.4377 36.24 32.9618 35.0638 32.7872 33.7477C32.7638 33.7594 32.7171 33.7594 32.7171 33.7824C32.0766 35.3435 30.4577 35.5645 29.188 35.2153C28.0585 34.9122 27.476 34.0971 27.3011 32.979C27.243 32.5714 27.208 32.1519 27.208 31.7326C27.1963 30.0437 27.208 28.3664 27.208 26.6428H29.2231C29.2347 26.7943 29.2464 26.9572 29.2464 27.1204V31.2433C29.2464 31.5347 29.2695 31.8257 29.3162 32.1171C29.4794 33.212 30.1546 33.6429 31.2495 33.3515C32.135 33.1185 32.7288 32.3034 32.7872 31.1034C32.8453 29.8224 32.8336 28.5413 32.8453 27.2599V26.6311H34.8019C34.8256 26.7008 34.837 26.7709 34.8486 26.8524C34.8486 29.3567 34.9067 31.8608 34.8256 34.3648C34.7208 37.3235 32.2047 39.1286 29.2931 38.4417C28.3262 38.2087 27.441 37.8242 26.7424 37.0905C26.5328 36.8692 26.4977 36.706 26.719 36.4617C27.0218 36.1586 27.2664 35.8091 27.5692 35.4366Z" fill="black"/>
<path d="M13.4869 33.678C12.3805 33.678 11.4722 32.49 11.4722 31.0227C11.4722 29.5551 12.3688 28.3668 13.4869 28.3668C14.6051 28.3668 15.502 29.5551 15.502 31.0227C15.502 32.49 14.6051 33.678 13.4869 33.678ZM15.4322 26.7363V28.0173C14.8031 27.1091 13.9065 26.5383 12.9048 26.5383C11.0296 26.5383 9.50391 28.5534 9.50391 31.0341C9.50391 33.5151 11.0296 35.5298 12.9048 35.5298C13.9065 35.5298 14.8031 34.9593 15.4322 34.0508V35.5298H17.4823V26.7363H15.4322Z" fill="black"/>
<path d="M49.2119 33.678C48.1054 33.678 47.1971 32.49 47.1971 31.0227C47.1971 29.5551 48.0937 28.3668 49.2119 28.3668C50.33 28.3668 51.2269 29.5551 51.2269 31.0227C51.2269 32.49 50.3183 33.678 49.2119 33.678ZM51.1455 26.7363V28.0173C50.528 27.1091 49.6197 26.5383 48.6181 26.5383C46.7429 26.5383 45.2168 28.5534 45.2168 31.0341C45.2168 33.5151 46.7429 35.5298 48.6181 35.5298C49.6197 35.5298 50.5166 34.9593 51.1455 34.0508V35.5298H53.1952V26.7363H51.1455Z" fill="black"/>
<path d="M70.6435 33.678C69.537 33.678 68.6284 32.49 68.6284 31.0227C68.6284 29.5551 69.5253 28.3668 70.6435 28.3668C71.7617 28.3668 72.6582 29.5551 72.6582 31.0227C72.6582 32.49 71.75 33.678 70.6435 33.678ZM72.5771 26.7363V28.0173C71.9596 27.1091 71.051 26.5383 70.0494 26.5383C68.1742 26.5383 66.6484 28.5534 66.6484 31.0341C66.6484 33.5151 68.1742 35.5298 70.0494 35.5298C71.051 35.5298 71.9479 34.9593 72.5771 34.0508V35.5298H74.6269V26.7363H72.5771Z" fill="black"/>
<path d="M54.709 35.5298H56.8055V26.5383H54.709V35.5298Z" fill="black"/>
<path d="M57.0487 24.3949C57.0487 23.6809 56.4696 23.1022 55.7556 23.1022C55.0417 23.1022 54.4629 23.6809 54.4629 24.3949C54.4629 25.1092 55.0417 25.688 55.7556 25.688C56.4696 25.688 57.0487 25.1092 57.0487 24.3949Z" fill="#26B15D"/>
<path d="M40.4053 33.6782C39.5318 33.6782 38.7978 33.0143 38.495 32.0593V30.1724C38.7978 29.2292 39.5435 28.5536 40.4053 28.5536C41.5465 28.5536 42.4667 29.6948 42.4667 31.1157C42.4667 32.537 41.5351 33.6782 40.4053 33.6782ZM40.9877 26.6784C40.0091 26.6784 39.1239 27.1908 38.495 28.0175V26.5385H36.4336V38.71H38.495V34.2022C39.1239 35.0293 40.0091 35.542 40.9877 35.542C42.9093 35.542 44.4701 33.5617 44.4701 31.1157C44.4701 28.6697 42.9093 26.6784 40.9877 26.6784Z" fill="black"/>
<path d="M24.5657 29.7179L26.0333 28.9491C26.01 28.2736 25.5557 27.6561 24.9849 27.2953C24.4142 26.9341 23.7272 26.7829 23.04 26.7128C21.9448 26.5963 20.7686 26.6894 19.872 27.3069C18.9748 27.9241 18.4391 29.2052 18.9518 30.1721C19.371 30.9756 20.3029 31.3484 21.1881 31.5113C22.073 31.6745 23.0049 31.7326 23.797 32.1401C23.9949 32.2449 24.2045 32.3965 24.2162 32.6181C24.2279 32.8394 24.0764 33.014 23.9252 33.1538C22.8771 34.0273 21.316 33.8875 20.4428 32.8394C20.1978 32.5367 20.0116 32.1869 19.9301 31.8027L18.3113 32.6528C17.9735 32.8394 19.2312 34.4002 19.3944 34.5397C20.594 35.5881 22.3994 35.751 23.8784 35.262C24.9152 34.9122 25.8935 34.1438 26.1031 33.072C26.2313 32.3848 26.0333 31.6745 25.5674 31.1505C25.0667 30.603 24.3327 30.3467 23.5991 30.1952C22.8654 30.044 22.1314 29.9972 21.4208 29.7759C21.118 29.6828 20.7686 29.4732 20.7803 29.1467C20.7919 28.856 21.118 28.6694 21.3978 28.5763C21.9916 28.3784 22.6441 28.2969 23.2496 28.4715C23.8551 28.6461 24.4025 29.1241 24.5657 29.7179Z" fill="black"/>
<path d="M64.1419 29.7179L65.6092 28.9491C65.5862 28.2736 65.1319 27.6561 64.5611 27.2953C63.9903 26.9341 63.3031 26.7829 62.6158 26.7128C61.521 26.5963 60.3447 26.6894 59.4479 27.3069C58.551 27.9241 58.0153 29.2052 58.528 30.1721C58.9472 30.9756 59.8788 31.3484 60.7643 31.5113C61.6492 31.6745 62.5811 31.7326 63.3732 32.1401C63.5711 32.2449 63.7807 32.3965 63.7924 32.6181C63.8041 32.8394 63.6525 33.014 63.5013 33.1538C62.4529 34.0273 60.8922 33.8875 60.0186 32.8394C59.774 32.5367 59.5877 32.1869 59.5063 31.8027L57.8874 32.6528C57.5496 32.8394 58.8073 34.4002 58.9706 34.5397C60.1702 35.5881 61.9753 35.751 63.4546 35.262C64.4913 34.9122 65.4697 34.1438 65.6793 33.072C65.8075 32.3848 65.6095 31.6745 65.1319 31.1505C64.6312 30.603 63.8972 30.3467 63.1635 30.1952C62.4296 30.044 61.6959 30.0092 60.997 29.7876C60.6942 29.6945 60.3447 29.4849 60.3564 29.1588C60.3681 28.8677 60.6942 28.6815 60.9736 28.588C61.5677 28.3901 62.2199 28.3086 62.8258 28.4832C63.4312 28.6578 63.9786 29.1241 64.1419 29.7179Z" fill="black"/>
<path d="M5.5929 30.3929C4.91732 30.7073 3.89227 30.6258 3.18164 30.4396C3.13525 30.4279 2.215 30.1018 2.26173 30.0204C2.93731 28.774 4.69602 27.6325 5.919 28.9022C6.04718 29.0187 6.1403 29.1816 6.18703 29.3448C6.29151 29.787 5.97708 30.2183 5.5929 30.3929ZM7.75915 28.0634C7.75915 28.0634 6.23343 25.7339 2.92563 26.8988C2.92563 26.8988 1.13188 27.3878 0.328125 30.253C0.328125 30.253 1.98202 32.8972 6.01213 32.0468C6.01213 32.0468 9.45978 31.1499 7.75915 28.0634Z" fill="black"/>
<path d="M0.338518 31.1151C0.338518 31.1151 -0.0573502 34.2367 2.8429 35.2617C5.74314 36.2868 8.02589 34.4116 8.70147 33.2466L7.04757 32.2683C7.04757 32.2683 5.75449 34.9473 2.03915 33.2119C2.03915 33.2119 0.687989 32.4199 0.338518 31.1151Z" fill="#26B15D"/>
</g>
</g>
<defs>
<clipPath id="clip0_74_15083">
<rect width="74.1" height="38.552" fill="white" transform="translate(0.429688 0.157227)"/>
</clipPath>
</defs>
</svg>
