<svg width="19" height="20" viewBox="0 0 19 20" fill="none" xmlns="http://www.w3.org/2000/svg">
<mask id="mask0_478_6318" style="mask-type:alpha" maskUnits="userSpaceOnUse" x="0" y="0" width="19" height="20">
<rect y="0.216309" width="19" height="19" fill="#D9D9D9"/>
</mask>
<g mask="url(#mask0_478_6318)">
<path d="M15.0423 15.2578H6.33398C5.89857 15.2578 5.52582 15.1028 5.21576 14.7927C4.90569 14.4826 4.75065 14.1099 4.75065 13.6745V2.59115C4.75065 2.15573 4.90569 1.78299 5.21576 1.47292C5.52582 1.16285 5.89857 1.00781 6.33398 1.00781H11.2225C11.4336 1.00781 11.6349 1.0474 11.8262 1.12656C12.0175 1.20573 12.1857 1.31788 12.3309 1.46302L16.1704 5.3026C16.3156 5.44774 16.4277 5.61597 16.5069 5.80729C16.5861 5.99861 16.6257 6.19983 16.6257 6.41094V13.6745C16.6257 14.1099 16.4706 14.4826 16.1605 14.7927C15.8505 15.1028 15.4777 15.2578 15.0423 15.2578ZM15.0423 6.54948H12.2715C11.9416 6.54948 11.6612 6.43403 11.4303 6.20312C11.1994 5.97222 11.084 5.69184 11.084 5.36198V2.59115H6.33398V13.6745H15.0423V6.54948ZM3.16732 18.4245C2.7319 18.4245 2.35916 18.2694 2.04909 17.9594C1.73902 17.6493 1.58398 17.2766 1.58398 16.8411V6.54948C1.58398 6.32517 1.65985 6.13715 1.81159 5.98542C1.96332 5.83368 2.15135 5.75781 2.37565 5.75781C2.59996 5.75781 2.78798 5.83368 2.93971 5.98542C3.09145 6.13715 3.16732 6.32517 3.16732 6.54948V16.8411H11.084C11.3083 16.8411 11.4963 16.917 11.648 17.0687C11.7998 17.2205 11.8757 17.4085 11.8757 17.6328C11.8757 17.8571 11.7998 18.0451 11.648 18.1969C11.4963 18.3486 11.3083 18.4245 11.084 18.4245H3.16732Z" fill="#808080"/>
</g>
</svg>
