<svg width="30" height="33" viewBox="0 0 30 33" fill="none" xmlns="http://www.w3.org/2000/svg">
<g clip-path="url(#clip0_79_3348)">
<path fill-rule="evenodd" clip-rule="evenodd" d="M8.63372 7.18994C15.8873 0.104229 24.7528 -1.95291 28.2069 3.07566C31.661 7.98994 28.6675 17.9328 21.2987 25.0185C14.1603 32.2185 5.17962 34.1614 1.72553 29.1328C-1.72856 24.2185 1.38012 14.2757 8.63372 7.18994Z" fill="#F99D27"/>
<path fill-rule="evenodd" clip-rule="evenodd" d="M13.4687 3.41976C12.6628 3.99119 11.8568 4.56262 11.166 5.4769C4.71835 11.7626 1.95507 20.334 5.17889 24.5626C8.40271 28.9055 16.232 27.3055 22.7948 21.134C26.2489 17.7055 28.5516 13.7055 29.703 10.0483C29.703 7.30548 29.4727 4.90548 28.2062 3.19119C25.3278 -0.80881 19.571 -0.237381 13.4687 3.19119" fill="#B02A30"/>
<path fill-rule="evenodd" clip-rule="evenodd" d="M20.755 3.5459C21.3279 4.10253 21.0006 5.45433 19.9367 6.40855C18.8728 7.76036 17.4816 7.99892 16.9905 7.20373C16.3358 6.96518 16.745 5.61337 17.8089 4.65915C18.791 3.62542 20.264 3.30734 20.755 3.86397V3.5459ZM17.0724 21.1989C14.6173 22.9483 12.1621 23.823 9.70703 23.5845C10.7709 23.5845 11.5893 22.4712 12.1621 20.9604C12.9805 19.37 13.3897 18.0182 13.7989 16.6664C14.2081 14.5989 14.2081 13.0881 13.9626 12.6905C13.5534 12.2134 12.5713 12.3724 11.5074 13.0086C11.0164 13.2471 10.3617 13.0086 11.1801 12.2134C11.9985 11.1796 15.272 8.87362 16.3358 8.55554C17.3179 8.15795 18.791 8.55554 18.2181 9.98687C17.8907 11.0206 13.4715 22.3917 16.745 21.1194L17.0724 21.1989Z" fill="white"/>
</g>
<defs>
<clipPath id="clip0_79_3348">
<rect width="29.9355" height="32" fill="white" transform="translate(0 0.333496)"/>
</clipPath>
</defs>
</svg>
