<svg width="38" height="33" viewBox="0 0 38 33" fill="none" xmlns="http://www.w3.org/2000/svg">
<g clip-path="url(#clip0_79_3326)">
<mask id="mask0_79_3326" style="mask-type:luminance" maskUnits="userSpaceOnUse" x="0" y="0" width="38" height="33">
<path d="M37.3353 0.833496H0.00195312V32.5668H37.3353V0.833496Z" fill="#003874"/>
</mask>
<g mask="url(#mask0_79_3326)">
<path fill-rule="evenodd" clip-rule="evenodd" d="M0.00195312 16.8335C0.00195312 7.76683 8.40195 0.833496 18.6686 0.833496C28.9353 0.833496 37.3353 7.90016 37.3353 16.8335C37.3353 25.5002 28.9353 32.5668 18.6686 32.5668C8.40195 32.5668 0.00195312 25.5002 0.00195312 16.5668" fill="#003874"/>
</g>
<mask id="mask1_79_3326" style="mask-type:luminance" maskUnits="userSpaceOnUse" x="0" y="0" width="38" height="33">
<path d="M37.3353 0.833496H0.00195312V32.5668H37.3353V0.833496Z" fill="#ED1C24"/>
</mask>
<g mask="url(#mask1_79_3326)">
<path fill-rule="evenodd" clip-rule="evenodd" d="M16.4023 5.89925L20.669 4.56592V27.4993L16.4023 29.0993" fill="#ED1C24"/>
</g>
<mask id="mask2_79_3326" style="mask-type:luminance" maskUnits="userSpaceOnUse" x="0" y="0" width="38" height="33">
<path d="M37.3353 0.833496H0.00195312V32.5668H37.3353V0.833496Z" fill="white"/>
</mask>
<g mask="url(#mask2_79_3326)">
<path fill-rule="evenodd" clip-rule="evenodd" d="M18.9361 20.4326C17.0694 22.5659 15.2027 24.8326 12.0027 24.8326C7.0694 24.8326 4.80273 20.2993 4.80273 16.4326C4.80273 12.6993 6.53607 8.43262 11.2027 8.43262C13.2027 8.43262 15.2027 9.76595 16.5361 11.0993V14.166C15.2027 13.2326 13.2027 12.8326 11.7361 12.8326C8.80273 12.8326 6.13607 13.766 6.40273 16.8326C6.40273 18.6993 8.2694 20.0326 10.4027 20.0326C13.3361 20.0326 15.2027 17.366 16.6694 15.2326L18.6694 12.8326C20.0027 10.6993 22.1361 8.56595 25.3361 8.56595C29.3361 8.56595 31.6027 11.766 32.2694 15.2326H30.6694C30.0027 13.8993 28.6694 13.366 27.2027 13.366C24.1361 13.366 22.1361 16.0326 20.5361 18.2993L18.9361 20.966V20.4326ZM32.6694 18.1659C32.2694 21.6326 30.4027 24.8326 26.2694 24.8326C23.8694 24.8326 22.0027 23.4993 20.6694 21.3659V19.0993C22.4027 19.8993 23.8694 20.6993 25.7361 20.6993C28.0027 20.6993 30.0027 19.3659 30.8027 18.0326H33.4694L32.6694 18.1659Z" fill="white"/>
</g>
</g>
<defs>
<clipPath id="clip0_79_3326">
<rect width="37.3333" height="32" fill="white" transform="translate(0 0.833496)"/>
</clipPath>
</defs>
</svg>
