<svg width="46" height="45" viewBox="0 0 46 45" fill="none" xmlns="http://www.w3.org/2000/svg">
<rect x="0.666992" width="45" height="45" rx="5.12626" fill="#FFFEFC"/>
<mask id="mask0_461_2055" style="mask-type:alpha" maskUnits="userSpaceOnUse" x="5" y="4" width="37" height="37">
<rect x="5" y="4.3335" width="36.3334" height="36.3334" fill="#D9D9D9"/>
</mask>
<g mask="url(#mask0_461_2055)">
<path d="M23.1672 37.6392C21.0983 37.6392 19.1428 37.2418 17.3009 36.447C15.459 35.6522 13.8505 34.5672 12.4754 33.1921C11.1003 31.817 10.0153 30.2085 9.22051 28.3666C8.42572 26.5247 8.02832 24.5692 8.02832 22.5002C8.02832 20.406 8.42572 18.4443 9.22051 16.615C10.0153 14.7857 11.1003 13.1835 12.4754 11.8084C13.8505 10.4333 15.459 9.34831 17.3009 8.55352C19.1428 7.75872 21.0983 7.36133 23.1672 7.36133C25.2615 7.36133 27.2232 7.75872 29.0525 8.55352C30.8818 9.34831 32.484 10.4333 33.8591 11.8084C35.2342 13.1835 36.3192 14.7857 37.114 16.615C37.9088 18.4443 38.3062 20.406 38.3062 22.5002C38.3062 24.5692 37.9088 26.5247 37.114 28.3666C36.3192 30.2085 35.2342 31.817 33.8591 33.1921C32.484 34.5672 30.8818 35.6522 29.0525 36.447C27.2232 37.2418 25.2615 37.6392 23.1672 37.6392ZM23.1672 34.5357C23.8233 33.6274 24.391 32.6812 24.8704 31.6971C25.3498 30.7131 25.7409 29.666 26.0436 28.5558H20.2908C20.5936 29.666 20.9847 30.7131 21.4641 31.6971C21.9435 32.6812 22.5112 33.6274 23.1672 34.5357ZM19.2311 33.9301C18.777 33.0975 18.3796 32.2333 18.0389 31.3376C17.6983 30.4419 17.4144 29.5146 17.1874 28.5558H12.7214C13.4531 29.8174 14.3677 30.915 15.4653 31.8485C16.5629 32.7821 17.8182 33.476 19.2311 33.9301ZM27.1034 33.9301C28.5163 33.476 29.7716 32.7821 30.8692 31.8485C31.9667 30.915 32.8814 29.8174 33.6131 28.5558H29.1471C28.92 29.5146 28.6362 30.4419 28.2955 31.3376C27.9549 32.2333 27.5575 33.0975 27.1034 33.9301ZM11.4346 25.528H16.5818C16.5061 25.0234 16.4493 24.5251 16.4115 24.0331C16.3736 23.541 16.3547 23.0301 16.3547 22.5002C16.3547 21.9704 16.3736 21.4594 16.4115 20.9674C16.4493 20.4754 16.5061 19.9771 16.5818 19.4725H11.4346C11.3084 19.9771 11.2138 20.4754 11.1507 20.9674C11.0876 21.4594 11.0561 21.9704 11.0561 22.5002C11.0561 23.0301 11.0876 23.541 11.1507 24.0331C11.2138 24.5251 11.3084 25.0234 11.4346 25.528ZM19.6096 25.528H26.7249C26.8006 25.0234 26.8574 24.5251 26.8952 24.0331C26.933 23.541 26.952 23.0301 26.952 22.5002C26.952 21.9704 26.933 21.4594 26.8952 20.9674C26.8574 20.4754 26.8006 19.9771 26.7249 19.4725H19.6096C19.5339 19.9771 19.4771 20.4754 19.4393 20.9674C19.4014 21.4594 19.3825 21.9704 19.3825 22.5002C19.3825 23.0301 19.4014 23.541 19.4393 24.0331C19.4771 24.5251 19.5339 25.0234 19.6096 25.528ZM29.7527 25.528H34.8999C35.0261 25.0234 35.1207 24.5251 35.1838 24.0331C35.2468 23.541 35.2784 23.0301 35.2784 22.5002C35.2784 21.9704 35.2468 21.4594 35.1838 20.9674C35.1207 20.4754 35.0261 19.9771 34.8999 19.4725H29.7527C29.8284 19.9771 29.8851 20.4754 29.923 20.9674C29.9608 21.4594 29.9798 21.9704 29.9798 22.5002C29.9798 23.0301 29.9608 23.541 29.923 24.0331C29.8851 24.5251 29.8284 25.0234 29.7527 25.528ZM29.1471 16.4447H33.6131C32.8814 15.1831 31.9667 14.0855 30.8692 13.152C29.7716 12.2184 28.5163 11.5245 27.1034 11.0704C27.5575 11.903 27.9549 12.7672 28.2955 13.6629C28.6362 14.5586 28.92 15.4859 29.1471 16.4447ZM20.2908 16.4447H26.0436C25.7409 15.3345 25.3498 14.2874 24.8704 13.3034C24.391 12.3193 23.8233 11.3731 23.1672 10.4648C22.5112 11.3731 21.9435 12.3193 21.4641 13.3034C20.9847 14.2874 20.5936 15.3345 20.2908 16.4447ZM12.7214 16.4447H17.1874C17.4144 15.4859 17.6983 14.5586 18.0389 13.6629C18.3796 12.7672 18.777 11.903 19.2311 11.0704C17.8182 11.5245 16.5629 12.2184 15.4653 13.152C14.3677 14.0855 13.4531 15.1831 12.7214 16.4447Z" fill="#808080"/>
</g>
<rect x="26.9755" y="23.2821" width="15.1633" height="14.9054" rx="7.4527" fill="#808080"/>
<rect x="26.9755" y="23.2821" width="15.1633" height="14.9054" rx="7.4527" stroke="#F9F7F0" stroke-width="1.51389"/>
<path d="M32.9748 32.9759H29.5153C29.3566 32.9759 29.2235 32.9222 29.1161 32.8148C29.0088 32.7075 28.9551 32.5744 28.9551 32.4157C28.9551 32.2569 29.0088 32.1239 29.1161 32.0165C29.2235 31.9091 29.3566 31.8554 29.5153 31.8554H32.9748L31.9243 30.805C31.8216 30.7023 31.7703 30.5739 31.7703 30.4198C31.7703 30.2658 31.8216 30.1327 31.9243 30.0207C32.0364 29.9086 32.1694 29.8526 32.3235 29.8526C32.4776 29.8526 32.6106 29.9086 32.7227 30.0207L34.7255 32.0235C34.7815 32.0795 34.8212 32.1402 34.8446 32.2056C34.8679 32.271 34.8796 32.341 34.8796 32.4157C34.8796 32.4904 34.8679 32.5604 34.8446 32.6258C34.8212 32.6911 34.7815 32.7518 34.7255 32.8078L32.7087 34.8247C32.5966 34.9367 32.4659 34.9904 32.3165 34.9858C32.1671 34.9811 32.0364 34.9227 31.9243 34.8107C31.8216 34.6986 31.7679 34.5679 31.7633 34.4185C31.7586 34.2691 31.8123 34.1384 31.9243 34.0264L32.9748 32.9759ZM36.1401 29.6145L37.1906 30.6649C37.2933 30.7676 37.3446 30.896 37.3446 31.0501C37.3446 31.2042 37.2933 31.3372 37.1906 31.4493C37.0785 31.5613 36.9455 31.6173 36.7914 31.6173C36.6373 31.6173 36.5043 31.5613 36.3922 31.4493L34.3894 29.4464C34.3334 29.3904 34.2937 29.3297 34.2703 29.2643C34.247 29.199 34.2353 29.129 34.2353 29.0543C34.2353 28.9796 34.247 28.9095 34.2703 28.8442C34.2937 28.7788 34.3334 28.7181 34.3894 28.6621L36.4062 26.6452C36.5183 26.5332 36.649 26.4795 36.7984 26.4842C36.9478 26.4888 37.0785 26.5472 37.1906 26.6592C37.2933 26.7713 37.347 26.902 37.3516 27.0514C37.3563 27.2008 37.3026 27.3315 37.1906 27.4436L36.1401 28.494H39.5996C39.7583 28.494 39.8914 28.5477 39.9988 28.6551C40.1061 28.7625 40.1598 28.8955 40.1598 29.0543C40.1598 29.213 40.1061 29.346 39.9988 29.4534C39.8914 29.5608 39.7583 29.6145 39.5996 29.6145H36.1401Z" fill="#FFFEFC"/>
</svg>
