<svg width="24" height="25" viewBox="0 0 24 25" fill="none" xmlns="http://www.w3.org/2000/svg">
<path d="M12 0.169922C5.4 0.169922 0 5.56992 0 12.1699C0 18.7699 5.4 24.1699 12 24.1699C18.6 24.1699 24 18.7699 24 12.1699C24 5.56992 18.6 0.169922 12 0.169922ZM11.0571 5.31278H12.9429V14.7414H11.0571V5.31278ZM12 19.8842C11.3143 19.8842 10.7143 19.2842 10.7143 18.5985C10.7143 17.9128 11.3143 17.3128 12 17.3128C12.6857 17.3128 13.2857 17.9128 13.2857 18.5985C13.2857 19.2842 12.6857 19.8842 12 19.8842Z" fill="#FFE14A"/>
</svg>
