<?xml version="1.0" standalone="no"?>
<!DOCTYPE svg PUBLIC "-//W3C//DTD SVG 20010904//EN"
 "http://www.w3.org/TR/2001/REC-SVG-20010904/DTD/svg10.dtd">
<svg version="1.0" xmlns="http://www.w3.org/2000/svg"
 width="695.000000pt" height="405.000000pt" viewBox="0 0 695.000000 405.000000"
 preserveAspectRatio="xMidYMid meet">

<g transform="translate(0.000000,405.000000) scale(0.100000,-0.100000)"
fill="#000000" stroke="none">
<path d="M3390 3225 l0 -45 90 0 90 0 0 -85 0 -85 130 0 130 0 0 46 0 45 -85
-3 -85 -3 0 88 0 87 -135 0 -135 0 0 -45z"/>
<path d="M3230 3108 l0 -128 80 0 79 0 3 -87 3 -88 43 -3 42 -3 0 130 0 131
-85 0 -84 0 -3 87 -3 87 -37 2 -38 1 0 -129z"/>
<path d="M2860 3055 l0 -45 90 0 90 0 0 -100 0 -101 128 3 127 3 0 35 0 35
-85 5 -85 5 -3 103 -3 102 -129 0 -130 0 0 -45z"/>
<path d="M3928 3013 l-3 -88 -82 -3 -83 -3 0 -124 0 -125 45 0 45 0 0 85 c0
61 4 85 13 86 6 0 42 0 78 -1 50 -1 68 2 72 13 3 8 3 67 0 131 l-6 116 -38 0
-38 0 -3 -87z"/>
<path d="M2870 2825 l0 -84 -87 -3 -88 -3 0 -115 c0 -63 2 -121 4 -127 2 -8
19 -13 42 -13 l38 0 3 88 3 87 50 1 c28 1 67 2 88 3 l37 1 0 125 0 125 -45 0
-45 0 0 -85z"/>
<path d="M3570 2820 l0 -90 -85 0 -85 0 0 -100 0 -100 40 0 40 0 2 43 c0 23 1
48 1 55 -1 9 22 12 83 12 46 0 84 3 85 8 1 11 1 236 0 250 -1 7 -16 12 -41 12
l-40 0 0 -90z"/>
<path d="M3052 2698 l3 -43 88 -3 87 -3 0 -59 0 -60 45 0 45 0 0 105 0 105
-136 0 -135 0 3 -42z"/>
<path d="M3930 2655 l0 -85 -104 0 c-101 0 -105 -1 -108 -22 -2 -13 -2 -33 0
-45 4 -23 7 -23 148 -23 l144 0 0 85 0 85 70 0 70 0 0 45 0 45 -110 0 -110 0
0 -85z"/>
<path d="M4100 2480 l0 -90 -85 0 -85 0 0 -130 0 -130 46 0 45 0 -3 85 -3 85
83 0 c45 0 82 3 83 8 0 4 2 61 4 127 5 131 3 135 -52 135 l-33 0 0 -90z"/>
<path d="M2870 2475 l0 -85 -70 0 -70 0 0 -40 0 -40 115 0 115 0 0 85 0 85
100 0 100 0 0 40 0 40 -145 0 -145 0 0 -85z"/>
<path d="M3562 2418 l3 -103 130 0 130 0 0 40 0 40 -87 3 -88 3 0 59 0 60 -45
0 -46 0 3 -102z"/>
<path d="M3229 2408 c-2 -13 -3 -78 -1 -145 l3 -123 39 0 39 0 3 103 3 102 83
3 82 3 0 39 0 40 -124 0 c-121 0 -124 -1 -127 -22z"/>
<path d="M3030 2295 l0 -85 -80 0 -80 0 -1 -120 c-1 -66 -2 -126 -3 -132 -1
-8 15 -14 42 -16 l42 -3 0 90 0 91 85 0 85 0 0 130 0 130 -45 0 -45 0 0 -85z"/>
<path d="M3400 2115 l0 -135 85 0 85 0 0 -85 0 -85 40 0 40 0 0 130 0 130 -80
0 -80 0 0 90 0 90 -45 0 -45 0 0 -135z"/>
<path d="M3585 2229 c-4 -6 -4 -26 0 -45 l6 -35 82 3 82 3 3 -102 3 -103 129
0 130 0 0 40 0 39 -87 3 -88 3 -3 103 -3 102 -124 0 c-77 0 -126 -4 -130 -11z"/>
<path d="M3050 1990 l0 -40 85 0 85 0 0 -85 0 -85 135 0 135 0 0 41 0 40 -90
-3 -90 -3 0 88 0 87 -130 0 -130 0 0 -40z"/>
<path d="M1809 1501 l-29 -29 0 -152 0 -152 29 -29 c21 -21 39 -29 64 -29 31
0 36 -4 42 -30 9 -39 49 -70 92 -70 74 0 105 53 38 66 -52 10 -46 34 9 34 33
0 52 6 73 24 l28 24 0 159 c0 210 -3 213 -195 213 -121 0 -122 0 -151 -29z
m245 -67 c9 -23 7 -217 -2 -231 -11 -17 -111 -27 -144 -14 l-28 11 0 118 c0
65 3 122 7 125 3 4 41 7 84 7 61 0 78 -3 83 -16z"/>
<path d="M2628 1513 c-2 -10 -2 -28 0 -41 4 -21 9 -23 51 -20 45 3 46 3 46 38
-1 34 -1 35 -47 38 -38 2 -47 0 -50 -15z"/>
<path d="M2813 1522 c-23 -3 -23 -3 -23 -208 l0 -204 50 0 50 0 0 66 c0 65 0
65 26 62 22 -2 33 -15 58 -65 l31 -63 53 0 54 0 -41 75 c-23 41 -41 81 -41 89
0 8 16 42 35 75 19 32 35 62 35 65 0 3 -22 6 -49 6 -49 0 -49 0 -80 -55 -25
-44 -36 -55 -56 -55 l-25 0 0 104 0 104 -27 3 c-16 2 -38 3 -50 1z"/>
<path d="M4373 1522 c-19 -3 -21 -9 -20 -50 l2 -47 -88 -5 c-120 -7 -127 -15
-127 -155 0 -90 3 -106 22 -130 20 -26 24 -27 90 -23 37 3 75 11 84 19 13 11
17 10 25 -4 7 -12 23 -17 49 -17 l40 0 0 205 c0 113 -3 205 -7 206 -35 4 -51
4 -70 1z m-20 -243 c0 -36 -3 -70 -7 -77 -4 -7 -29 -12 -57 -12 l-49 0 0 80 0
81 56 -3 56 -3 1 -66z"/>
<path d="M3181 1487 c-6 -6 -11 -22 -11 -35 0 -15 -7 -26 -20 -29 -14 -4 -20
-14 -20 -34 0 -18 7 -32 20 -39 18 -10 20 -21 20 -105 0 -89 1 -95 26 -114 21
-17 41 -21 95 -21 l69 0 0 35 c0 36 -5 39 -56 36 -35 -3 -45 21 -42 96 l3 68
38 3 c35 3 37 5 37 37 0 32 -2 34 -37 37 -35 3 -38 6 -41 36 -2 17 -9 33 -15
33 -7 1 -22 3 -34 4 -12 1 -27 -3 -32 -8z"/>
<path d="M3452 1420 c-39 -16 -55 -73 -49 -173 4 -74 8 -92 28 -113 21 -22 30
-24 114 -24 51 0 107 3 124 6 27 6 31 11 31 38 l0 32 -97 0 c-94 -1 -98 0
-101 22 -3 22 -2 22 102 22 l106 0 0 71 c0 65 -2 73 -29 100 -28 28 -33 29
-118 28 -48 0 -98 -4 -111 -9z m156 -92 c3 -28 2 -28 -52 -28 -52 0 -56 2 -56
23 0 33 8 38 60 35 41 -3 45 -6 48 -30z"/>
<path d="M3905 1415 c-24 -9 -41 -11 -43 -5 -2 6 -24 10 -48 10 l-44 0 0 -155
0 -155 50 0 50 0 0 114 c0 126 0 126 76 126 41 0 45 -13 44 -120 -1 -47 -1
-93 -1 -102 1 -14 10 -18 46 -18 l45 0 0 140 0 140 -32 20 c-38 23 -87 25
-143 5z"/>
<path d="M4560 1417 c-38 -19 -50 -54 -50 -150 0 -92 14 -139 45 -151 22 -8
193 -6 225 3 19 5 25 14 27 38 l1 30 -96 -1 c-93 -1 -97 0 -100 22 -3 22 -2
22 103 22 l107 0 -4 76 c-3 69 -6 79 -31 100 -25 21 -38 24 -115 24 -50 0 -98
-6 -112 -13z m158 -89 c3 -28 2 -28 -52 -28 -52 0 -56 2 -56 23 0 33 8 38 60
35 41 -3 45 -6 48 -30z"/>
<path d="M5012 1410 c-39 -24 -42 -24 -42 -5 0 11 -12 15 -45 15 l-45 0 0
-155 0 -155 45 0 c43 0 44 1 51 36 4 20 4 65 1 100 -8 79 4 94 74 94 l49 0 0
45 c0 42 -2 45 -27 45 -16 0 -43 -9 -61 -20z"/>
<path d="M2220 1291 c0 -115 2 -131 21 -155 18 -22 28 -26 75 -26 31 0 69 7
86 16 28 15 32 15 40 0 6 -10 23 -16 48 -16 l40 0 0 155 0 155 -45 0 -45 0 0
-103 c0 -67 -4 -107 -12 -115 -7 -7 -34 -12 -60 -12 l-48 0 0 115 0 115 -50 0
-50 0 0 -129z"/>
<path d="M2580 1376 c0 -28 4 -35 23 -38 21 -3 22 -8 24 -98 1 -52 2 -103 2
-113 1 -15 8 -18 49 -15 38 2 47 6 46 21 -1 9 -2 76 -3 147 l-1 130 -70 0 -70
0 0 -34z"/>
</g>
</svg>
