<?xml version="1.0" encoding="UTF-8" standalone="no"?>
<svg
   version="1.0"
   width="695.000000pt"
   height="405.000000pt"
   viewBox="0 0 695.000000 405.000000"
   preserveAspectRatio="xMidYMid meet"
   id="svg27"
   sodipodi:docname="Quiktender Logo BlueGrey.svg"
   inkscape:version="1.4 (86a8ad7, 2024-10-11)"
   xmlns:inkscape="http://www.inkscape.org/namespaces/inkscape"
   xmlns:sodipodi="http://sodipodi.sourceforge.net/DTD/sodipodi-0.dtd"
   xmlns="http://www.w3.org/2000/svg"
   xmlns:svg="http://www.w3.org/2000/svg">
  <defs
     id="defs27" />
  <sodipodi:namedview
     id="namedview27"
     pagecolor="#ffffff"
     bordercolor="#000000"
     borderopacity="0.25"
     inkscape:showpageshadow="2"
     inkscape:pageopacity="0.0"
     inkscape:pagecheckerboard="0"
     inkscape:deskcolor="#d1d1d1"
     inkscape:document-units="pt"
     inkscape:zoom="1.1222222"
     inkscape:cx="462.92079"
     inkscape:cy="270"
     inkscape:window-width="1368"
     inkscape:window-height="850"
     inkscape:window-x="-6"
     inkscape:window-y="-6"
     inkscape:window-maximized="1"
     inkscape:current-layer="svg27" />
  <path
     d="M 339,82.5 V 87 h 9 9 v 8.5 8.5 h 13 13 v -4.6 -4.5 l -8.5,0.3 -8.5,0.3 V 86.7 78 H 352.5 339 Z"
     id="path1"
     style="fill:#808080;fill-opacity:1;stroke:none;stroke-width:0.1" />
  <path
     d="M 323,94.2 V 107 h 8 7.9 l 0.3,8.7 0.3,8.8 4.3,0.3 4.2,0.3 V 112.1 99 h -8.5 -8.4 l -0.3,-8.7 -0.3,-8.7 -3.7,-0.2 -3.8,-0.1 z"
     id="path2"
     style="fill:#808080;fill-opacity:1;stroke:none;stroke-width:0.1" />
  <path
     d="m 286,99.5 v 4.5 h 9 9 v 10 10.1 l 12.8,-0.3 12.7,-0.3 V 120 116.5 L 321,116 312.5,115.5 312.2,105.2 311.9,95 H 299 286 Z"
     id="path3"
     style="fill:#808080;fill-opacity:1;stroke:none;stroke-width:0.1" />
  <path
     d="m 392.8,103.7 -0.3,8.8 -8.2,0.3 -8.3,0.3 v 12.4 12.5 h 4.5 4.5 v -8.5 c 0,-6.1 0.4,-8.5 1.3,-8.6 0.6,0 4.2,0 7.8,0.1 5,0.1 6.8,-0.2 7.2,-1.3 0.3,-0.8 0.3,-6.7 0,-13.1 L 400.7,95 h -3.8 -3.8 z"
     id="path4"
     style="fill:#808080;fill-opacity:1;stroke:none;stroke-width:0.1" />
  <path
     d="m 287,122.5 v 8.4 l -8.7,0.3 -8.8,0.3 V 143 c 0,6.3 0.2,12.1 0.4,12.7 0.2,0.8 1.9,1.3 4.2,1.3 h 3.8 l 0.3,-8.8 0.3,-8.7 5,-0.1 c 2.8,-0.1 6.7,-0.2 8.8,-0.3 L 296,139 V 126.5 114 h -4.5 -4.5 z"
     id="path5"
     style="fill:#808080;fill-opacity:1;stroke:none;stroke-width:0.1" />
  <path
     d="m 357,123 v 9 h -8.5 -8.5 v 10 10 h 4 4 l 0.2,-4.3 c 0,-2.3 0.1,-4.8 0.1,-5.5 -0.1,-0.9 2.2,-1.2 8.3,-1.2 4.6,0 8.4,-0.3 8.5,-0.8 0.1,-1.1 0.1,-23.6 0,-25 -0.1,-0.7 -1.6,-1.2 -4.1,-1.2 h -4 z"
     id="path6"
     style="fill:#808080;fill-opacity:1;stroke:none;stroke-width:0.1" />
  <path
     d="m 305.2,135.2 0.3,4.3 8.8,0.3 8.7,0.3 v 5.9 6 h 4.5 4.5 V 141.5 131 h -13.6 -13.5 z"
     id="path7"
     style="fill:#808080;fill-opacity:1;stroke:none;stroke-width:0.1" />
  <path
     d="m 393,139.5 v 8.5 h -10.4 c -10.1,0 -10.5,0.1 -10.8,2.2 -0.2,1.3 -0.2,3.3 0,4.5 0.4,2.3 0.7,2.3 14.8,2.3 H 401 v -8.5 -8.5 h 7 7 v -4.5 -4.5 h -11 -11 z"
     id="path8"
     style="fill:#808080;fill-opacity:1;stroke:none;stroke-width:0.1" />
  <path
     d="m 410,157 v 9 h -8.5 -8.5 v 13 13 h 4.6 4.5 l -0.3,-8.5 -0.3,-8.5 h 8.3 c 4.5,0 8.2,-0.3 8.3,-0.8 0,-0.4 0.2,-6.1 0.4,-12.7 0.5,-13.1 0.3,-13.5 -5.2,-13.5 H 410 Z"
     id="path9"
     style="fill:#808080;fill-opacity:1;stroke:none;stroke-width:0.1" />
  <path
     d="m 287,157.5 v 8.5 h -7 -7 v 4 4 h 11.5 11.5 v -8.5 -8.5 h 10 10 v -4 -4 H 301.5 287 Z"
     id="path10"
     style="fill:#808080;fill-opacity:1;stroke:none;stroke-width:0.1" />
  <path
     d="m 356.2,163.2 0.3,10.3 h 13 13 v -4 -4 l -8.7,-0.3 -8.8,-0.3 v -5.9 -6 h -4.5 -4.6 z"
     id="path11"
     style="fill:#808080;fill-opacity:1;stroke:none;stroke-width:0.1" />
  <g
     id="g27"
     style="fill:#808080">
    <path
       d="m 322.9,164.2 c -0.2,1.3 -0.3,7.8 -0.1,14.5 l 0.3,12.3 h 3.9 3.9 l 0.3,-10.3 0.3,-10.2 8.3,-0.3 8.2,-0.3 v -3.9 -4 h -12.4 c -12.1,0 -12.4,0.1 -12.7,2.2 z"
       id="path12"
       style="fill:#808080;fill-opacity:1;stroke:none;stroke-width:0.1" />
  </g>
  <path
     d="m 303,175.5 v 8.5 h -8 -8 l -0.1,12 c -0.1,6.6 -0.2,12.6 -0.3,13.2 -0.1,0.8 1.5,1.4 4.2,1.6 l 4.2,0.3 v -9 -9.1 h 8.5 8.5 v -13 -13 h -4.5 -4.5 z"
     id="path13"
     style="fill:#808080;fill-opacity:1;stroke:none;stroke-width:0.1" />
  <path
     d="M 340,193.5 V 207 h 8.5 8.5 v 8.5 8.5 h 4 4 v -13 -13 h -8 -8 v -9 -9 h -4.5 -4.5 z"
     id="path14"
     style="fill:#808080;fill-opacity:1;stroke:none;stroke-width:0.1" />
  <path
     d="m 358.5,182.1 c -0.4,0.6 -0.4,2.6 0,4.5 l 0.6,3.5 8.2,-0.3 8.2,-0.3 0.3,10.2 0.3,10.3 h 12.9 13 v -4 -3.9 l -8.7,-0.3 -8.8,-0.3 -0.3,-10.3 -0.3,-10.2 h -12.4 c -7.7,0 -12.6,0.4 -13,1.1 z"
     id="path15"
     style="fill:#808080;fill-opacity:1;stroke:none;stroke-width:0.1" />
  <path
     d="m 305,206 v 4 h 8.5 8.5 v 8.5 8.5 h 13.5 13.5 v -4.1 -4 l -9,0.3 -9,0.3 v -8.8 -8.7 h -13 -13 z"
     id="path16"
     style="fill:#808080;fill-opacity:1;stroke:none;stroke-width:0.1" />
  <path
     d="m 180.9,254.9 -2.9,2.9 v 15.2 15.2 l 2.9,2.9 c 2.1,2.1 3.9,2.9 6.4,2.9 3.1,0 3.6,0.4 4.2,3 0.9,3.9 4.9,7 9.2,7 7.4,0 10.5,-5.3 3.8,-6.6 -5.2,-1 -4.6,-3.4 0.9,-3.4 3.3,0 5.2,-0.6 7.3,-2.4 l 2.8,-2.4 v -15.9 c 0,-21 -0.3,-21.3 -19.5,-21.3 -12.1,0 -12.2,0 -15.1,2.9 z m 24.5,6.7 c 0.9,2.3 0.7,21.7 -0.2,23.1 -1.1,1.7 -11.1,2.7 -14.4,1.4 L 188,285 v -11.8 c 0,-6.5 0.3,-12.2 0.7,-12.5 0.3,-0.4 4.1,-0.7 8.4,-0.7 6.1,0 7.8,0.3 8.3,1.6 z"
     id="path17"
     style="fill:#06a0f9;fill-opacity:1;stroke:none;stroke-width:0.1" />
  <path
     d="m 262.8,253.7 c -0.2,1 -0.2,2.8 0,4.1 0.4,2.1 0.9,2.3 5.1,2 4.5,-0.3 4.6,-0.3 4.6,-3.8 -0.1,-3.4 -0.1,-3.5 -4.7,-3.8 -3.8,-0.2 -4.7,0 -5,1.5 z"
     id="path18"
     style="fill:#06a0f9;fill-opacity:1;stroke:none;stroke-width:0.1" />
  <path
     d="m 281.3,252.8 c -2.3,0.3 -2.3,0.3 -2.3,20.8 V 294 h 5 5 v -6.6 c 0,-6.5 0,-6.5 2.6,-6.2 2.2,0.2 3.3,1.5 5.8,6.5 l 3.1,6.3 h 5.3 5.4 l -4.1,-7.5 c -2.3,-4.1 -4.1,-8.1 -4.1,-8.9 0,-0.8 1.6,-4.2 3.5,-7.5 1.9,-3.2 3.5,-6.2 3.5,-6.5 0,-0.3 -2.2,-0.6 -4.9,-0.6 -4.9,0 -4.9,0 -8,5.5 -2.5,4.4 -3.6,5.5 -5.6,5.5 H 289 v -10.4 -10.4 l -2.7,-0.3 c -1.6,-0.2 -3.8,-0.3 -5,-0.1 z"
     id="path19"
     style="fill:#06a0f9;fill-opacity:1;stroke:none;stroke-width:0.1" />
  <path
     d="m 437.3,252.8 c -1.9,0.3 -2.1,0.9 -2,5 l 0.2,4.7 -8.8,0.5 c -12,0.7 -12.7,1.5 -12.7,15.5 0,9 0.3,10.6 2.2,13 2,2.6 2.4,2.7 9,2.3 3.7,-0.3 7.5,-1.1 8.4,-1.9 1.3,-1.1 1.7,-1 2.5,0.4 0.7,1.2 2.3,1.7 4.9,1.7 h 4 v -20.5 c 0,-11.3 -0.3,-20.5 -0.7,-20.6 -3.5,-0.4 -5.1,-0.4 -7,-0.1 z m -2,24.3 c 0,3.6 -0.3,7 -0.7,7.7 -0.4,0.7 -2.9,1.2 -5.7,1.2 H 424 v -8 -8.1 l 5.6,0.3 5.6,0.3 z"
     id="path20"
     style="fill:#06a0f9;fill-opacity:1;stroke:none;stroke-width:0.1" />
  <path
     d="m 318.1,256.3 c -0.6,0.6 -1.1,2.2 -1.1,3.5 0,1.5 -0.7,2.6 -2,2.9 -1.4,0.4 -2,1.4 -2,3.4 0,1.8 0.7,3.2 2,3.9 1.8,1 2,2.1 2,10.5 0,8.9 0.1,9.5 2.6,11.4 2.1,1.7 4.1,2.1 9.5,2.1 h 6.9 v -3.5 c 0,-3.6 -0.5,-3.9 -5.6,-3.6 -3.5,0.3 -4.5,-2.1 -4.2,-9.6 l 0.3,-6.8 3.8,-0.3 c 3.5,-0.3 3.7,-0.5 3.7,-3.7 0,-3.2 -0.2,-3.4 -3.7,-3.7 -3.5,-0.3 -3.8,-0.6 -4.1,-3.6 -0.2,-1.7 -0.9,-3.3 -1.5,-3.3 -0.7,-0.1 -2.2,-0.3 -3.4,-0.4 -1.2,-0.1 -2.7,0.3 -3.2,0.8 z"
     id="path21"
     style="fill:#06a0f9;fill-opacity:1;stroke:none;stroke-width:0.1" />
  <path
     d="m 345.2,263 c -3.9,1.6 -5.5,7.3 -4.9,17.3 0.4,7.4 0.8,9.2 2.8,11.3 2.1,2.2 3,2.4 11.4,2.4 5.1,0 10.7,-0.3 12.4,-0.6 2.7,-0.6 3.1,-1.1 3.1,-3.8 v -3.2 h -9.7 c -9.4,0.1 -9.8,0 -10.1,-2.2 C 349.9,282 350,282 360.4,282 H 371 v -7.1 c 0,-6.5 -0.2,-7.3 -2.9,-10 -2.8,-2.8 -3.3,-2.9 -11.8,-2.8 -4.8,0 -9.8,0.4 -11.1,0.9 z m 15.6,9.2 c 0.3,2.8 0.2,2.8 -5.2,2.8 -5.2,0 -5.6,-0.2 -5.6,-2.3 0,-3.3 0.8,-3.8 6,-3.5 4.1,0.3 4.5,0.6 4.8,3 z"
     id="path22"
     style="fill:#06a0f9;fill-opacity:1;stroke:none;stroke-width:0.1" />
  <path
     d="m 390.5,263.5 c -2.4,0.9 -4.1,1.1 -4.3,0.5 -0.2,-0.6 -2.4,-1 -4.8,-1 H 377 v 15.5 15.5 h 5 5 v -11.4 c 0,-12.6 0,-12.6 7.6,-12.6 4.1,0 4.5,1.3 4.4,12 -0.1,4.7 -0.1,9.3 -0.1,10.2 0.1,1.4 1,1.8 4.6,1.8 h 4.5 v -14 -14 l -3.2,-2 c -3.8,-2.3 -8.7,-2.5 -14.3,-0.5 z"
     id="path23"
     style="fill:#06a0f9;fill-opacity:1;stroke:none;stroke-width:0.1" />
  <path
     d="m 456,263.3 c -3.8,1.9 -5,5.4 -5,15 0,9.2 1.4,13.9 4.5,15.1 2.2,0.8 19.3,0.6 22.5,-0.3 1.9,-0.5 2.5,-1.4 2.7,-3.8 l 0.1,-3 -9.6,0.1 c -9.3,0.1 -9.7,0 -10,-2.2 -0.3,-2.2 -0.2,-2.2 10.3,-2.2 h 10.7 l -0.4,-7.6 c -0.3,-6.9 -0.6,-7.9 -3.1,-10 -2.5,-2.1 -3.8,-2.4 -11.5,-2.4 -5,0 -9.8,0.6 -11.2,1.3 z m 15.8,8.9 c 0.3,2.8 0.2,2.8 -5.2,2.8 -5.2,0 -5.6,-0.2 -5.6,-2.3 0,-3.3 0.8,-3.8 6,-3.5 4.1,0.3 4.5,0.6 4.8,3 z"
     id="path24"
     style="fill:#06a0f9;fill-opacity:1;stroke:none;stroke-width:0.1" />
  <path
     d="m 501.2,264 c -3.9,2.4 -4.2,2.4 -4.2,0.5 0,-1.1 -1.2,-1.5 -4.5,-1.5 H 488 v 15.5 15.5 h 4.5 c 4.3,0 4.4,-0.1 5.1,-3.6 0.4,-2 0.4,-6.5 0.1,-10 -0.8,-7.9 0.4,-9.4 7.4,-9.4 h 4.9 v -4.5 c 0,-4.2 -0.2,-4.5 -2.7,-4.5 -1.6,0 -4.3,0.9 -6.1,2 z"
     id="path25"
     style="fill:#06a0f9;fill-opacity:1;stroke:none;stroke-width:0.1" />
  <path
     d="m 222,275.9 c 0,11.5 0.2,13.1 2.1,15.5 1.8,2.2 2.8,2.6 7.5,2.6 3.1,0 6.9,-0.7 8.6,-1.6 2.8,-1.5 3.2,-1.5 4,0 0.6,1 2.3,1.6 4.8,1.6 h 4 V 278.5 263 h -4.5 -4.5 v 10.3 c 0,6.7 -0.4,10.7 -1.2,11.5 -0.7,0.7 -3.4,1.2 -6,1.2 H 232 V 274.5 263 h -5 -5 z"
     id="path26"
     style="fill:#06a0f9;fill-opacity:1;stroke:none;stroke-width:0.1" />
  <path
     d="m 258,267.4 c 0,2.8 0.4,3.5 2.3,3.8 2.1,0.3 2.2,0.8 2.4,9.8 0.1,5.2 0.2,10.3 0.2,11.3 0.1,1.5 0.8,1.8 4.9,1.5 3.8,-0.2 4.7,-0.6 4.6,-2.1 -0.1,-0.9 -0.2,-7.6 -0.3,-14.7 L 272,264 h -7 -7 z"
     id="path27"
     style="fill:#06a0f9;fill-opacity:1;stroke:none;stroke-width:0.1" />
</svg>
