<svg width="125" height="86" viewBox="0 0 125 86" fill="none" xmlns="http://www.w3.org/2000/svg">
<path d="M60.6895 2.19199V3.88446H64.0745H67.4595V7.08136V10.2783H72.349H77.2386V8.54817V6.8557L74.0416 6.96853L70.8446 7.08136V3.77163V0.499512H65.767H60.6895V2.19199Z" fill="#808080"/>
<path d="M54.6641 6.59297V11.4071H57.673H60.6443L60.7571 14.6792L60.87 17.989L62.4873 18.1018L64.067 18.2146V13.3253V8.39828H60.87H57.7106L57.5978 5.12616L57.4849 1.85404L56.0933 1.77882L54.6641 1.74121V6.59297Z" fill="#808080"/>
<path d="M40.7578 8.58554V10.278H44.1429H47.5279V14.0391V17.8377L52.3422 17.7249L57.1189 17.6121V16.2957V14.9793L53.9219 14.7913L50.7249 14.6032L50.6121 10.7293L50.4992 6.89307H45.6473H40.7578V8.58554Z" fill="#808080"/>
<path d="M80.9262 10.1652L80.8133 13.4749L77.7292 13.5877L74.6074 13.7006V18.3643V23.0656H76.2999H77.9925V19.8687C77.9925 17.5745 78.1429 16.6718 78.4814 16.6342C78.7071 16.6342 80.0611 16.6342 81.4151 16.6718C83.2957 16.7094 83.9727 16.5966 84.1231 16.1829C84.236 15.882 84.236 13.663 84.1231 11.2559L83.8975 6.89307H82.4682H81.039L80.9262 10.1652Z" fill="#808080"/>
<path d="M41.1191 17.235V20.3943L37.8469 20.5071L34.5371 20.6199V24.9452C34.5371 27.3146 34.6123 29.496 34.6876 29.7217C34.7628 30.0226 35.4022 30.2106 36.2672 30.2106H37.6965L37.8093 26.9009L37.9222 23.6288L39.8027 23.5912C40.8559 23.5536 42.3227 23.516 43.1125 23.4783L44.5042 23.4407V18.7394V14.0381H42.8117H41.1191V17.235Z" fill="#808080"/>
<path d="M67.4526 17.423V20.808H64.2556H61.0586V24.569V28.3301H62.5631H64.0675L64.1427 26.7129C64.1427 25.8478 64.1803 24.9075 64.1803 24.6443C64.1427 24.3058 65.0078 24.1929 67.3021 24.1929C69.0322 24.1929 70.4615 24.0801 70.4991 23.8921C70.5367 23.4783 70.5367 15.016 70.4991 14.4894C70.4615 14.2261 69.8973 14.0381 68.957 14.0381H67.4526V17.423Z" fill="#808080"/>
<path d="M47.9703 22.0113L48.0831 23.6285L51.3929 23.7414L54.6651 23.8542V26.0732V28.3299H56.3576H58.0502V24.3808V20.4316H52.935H47.8574L47.9703 22.0113Z" fill="#808080"/>
<path d="M81.0027 23.6285V26.8254H77.0911C73.2924 26.8254 73.1419 26.863 73.0291 27.6529C72.9539 28.1418 72.9539 28.894 73.0291 29.3453C73.1795 30.2104 73.2924 30.2104 78.5956 30.2104H84.0117V27.0135V23.8166H86.6445H89.2773V22.1241V20.4316H85.14H81.0027V23.6285Z" fill="#808080"/>
<path d="M87.3862 30.2101V33.5951H84.1892H80.9922V38.4845V43.3738H82.7223H84.4148L84.302 40.177L84.1892 36.9801H87.3109C89.0034 36.9801 90.3951 36.8672 90.4327 36.6792C90.4327 36.5287 90.5079 34.3849 90.5831 31.9026C90.7712 26.9756 90.696 26.8252 88.6273 26.8252H87.3862V30.2101Z" fill="#808080"/>
<path d="M41.1211 30.3976V33.5945H38.4883H35.8555V35.0989V36.6033H40.1808H44.5061V33.4064V30.2095H48.2673H52.0284V28.7051V27.2007H46.5748H41.1211V30.3976Z" fill="#808080"/>
<path d="M67.1519 32.5458L67.2647 36.4196H72.1542H77.0437V34.9152V33.4108L73.7715 33.298L70.4617 33.1851V30.9661V28.7095H68.7692H67.0391L67.1519 32.5458Z" fill="#808080"/>
<path d="M54.6333 32.9187C54.5581 33.4077 54.5205 35.8524 54.5957 38.3723L54.7085 42.9984H56.1754H57.6422L57.7551 39.1245L57.8679 35.2882L60.9897 35.1754L64.0738 35.0625V33.5957V32.0913H59.41C54.859 32.0913 54.7461 32.1289 54.6333 32.9187Z" fill="#808080"/>
<path d="M47.1426 37.1725V40.3694H44.1337H41.1248L41.0872 44.8827C41.0495 47.365 41.0119 49.6216 40.9743 49.8472C40.9367 50.1481 41.5385 50.3738 42.554 50.449L44.1337 50.5619V47.1769V43.7543H47.3307H50.5277V38.865V33.9756H48.8351H47.1426V37.1725Z" fill="#808080"/>
<path d="M61.0586 43.9383V49.0157H64.2556H67.4526V52.2126V55.4095H68.957H70.4615V50.5201V45.6307H67.4526H64.4436V42.2458V38.8608H62.7511H61.0586V43.9383Z" fill="#808080"/>
<path d="M68.0152 39.65C67.8647 39.8757 67.8647 40.6279 68.0152 41.3425L68.2409 42.6589L71.325 42.5461L74.4091 42.4332L74.522 46.2695L74.6348 50.1434H79.4867H84.3762V48.639V47.1722L81.104 47.0593L77.7942 46.9465L77.6814 43.0726L77.5685 39.2363H72.9047C70.0086 39.2363 68.1656 39.3868 68.0152 39.65Z" fill="#808080"/>
<path d="M47.9023 48.6426V50.147H51.0993H54.2963V53.3439V56.5408H59.3739H64.4514V54.9988V53.4944L61.0664 53.6072L57.6814 53.72V50.4103V47.1382H52.7918H47.9023V48.6426Z" fill="#808080"/>
<path d="M1.22159 67.0341L0.130859 68.1248V73.8416V79.5584L1.22159 80.6491C2.01144 81.4389 2.68845 81.7398 3.62874 81.7398C4.7947 81.7398 4.98275 81.8902 5.20842 82.8681C5.54693 84.3349 7.05139 85.5009 8.66869 85.5009C11.4519 85.5009 12.6179 83.5075 10.0979 83.0186C8.14213 82.6425 8.36779 81.7398 10.4364 81.7398C11.6776 81.7398 12.3922 81.5141 13.1821 80.8371L14.2352 79.9345V73.9544C14.2352 66.0562 14.1224 65.9434 6.90094 65.9434C2.34994 65.9434 2.31233 65.9434 1.22159 67.0341ZM10.4364 69.554C10.7749 70.419 10.6997 77.7155 10.3612 78.242C9.94748 78.8814 6.18632 79.2575 4.94514 78.7686L3.89202 78.3548V73.9168C3.89202 71.4721 4.00485 69.3283 4.1553 69.2155C4.26813 69.065 5.69737 68.9522 7.31467 68.9522C9.60898 68.9522 10.2484 69.065 10.4364 69.554Z" fill="#06A0F9"/>
<path d="M32.0291 66.5812C31.9539 66.9573 31.9539 67.6343 32.0291 68.1232C32.1795 68.9131 32.3676 68.9883 33.9473 68.8755C35.6398 68.7626 35.6774 68.7626 35.6774 67.4463C35.6398 66.1675 35.6398 66.1299 33.9097 66.0171C32.4804 65.9418 32.1419 66.0171 32.0291 66.5812Z" fill="#06A0F9"/>
<path d="M38.9862 66.2427C38.1211 66.3555 38.1211 66.3555 38.1211 74.0657V81.7382H40.0017H41.8823V79.2559C41.8823 76.8112 41.8823 76.8112 42.8602 76.9241C43.6876 76.9993 44.1013 77.4882 45.0416 79.3688L46.2076 81.7382H48.201H50.232L48.6899 78.9174C47.8249 77.3754 47.1479 75.871 47.1479 75.5701C47.1479 75.2692 47.7497 73.9904 48.4643 72.7493C49.1789 71.5458 49.7807 70.4174 49.7807 70.3046C49.7807 70.1918 48.9532 70.0789 47.9377 70.0789C46.0948 70.0789 46.0948 70.0789 44.9288 72.1475C43.9885 73.8024 43.5748 74.2161 42.8225 74.2161H41.8823V70.3046V66.3931L40.8667 66.2803C40.2649 66.205 39.4375 66.1674 38.9862 66.2427Z" fill="#06A0F9"/>
<path d="M97.66 66.2425C96.9454 66.3554 96.8701 66.581 96.9077 68.1231L96.983 69.8908L93.6732 70.0788C89.1598 70.3421 88.8965 70.643 88.8965 75.9085C88.8965 79.2934 89.0093 79.8952 89.7239 80.7978C90.4762 81.7757 90.6266 81.8133 93.109 81.6629C94.5006 81.55 95.9299 81.2492 96.2684 80.9483C96.7573 80.5346 96.9078 80.5722 97.2086 81.0987C97.4719 81.55 98.0737 81.7381 99.0516 81.7381H100.556V74.0279C100.556 69.7779 100.443 66.3178 100.293 66.2801C98.9764 66.1297 98.3746 66.1297 97.66 66.2425ZM96.9077 75.3819C96.9077 76.7359 96.7949 78.0146 96.6445 78.2779C96.494 78.5412 95.5537 78.7292 94.5006 78.7292H92.6576V75.7204V72.6739L94.7639 72.7868L96.8701 72.8996L96.9077 75.3819Z" fill="#06A0F9"/>
<path d="M52.8264 67.5572C52.6007 67.7828 52.4127 68.3846 52.4127 68.8735C52.4127 69.4377 52.1494 69.8514 51.6604 69.9643C51.1339 70.1147 50.9082 70.4908 50.9082 71.243C50.9082 71.92 51.1715 72.4465 51.6604 72.7098C52.3374 73.0859 52.4127 73.4996 52.4127 76.6589C52.4127 80.0063 52.4503 80.2319 53.3906 80.9465C54.1804 81.5859 54.9326 81.7364 56.9637 81.7364H59.5589V80.42C59.5589 79.066 59.3708 78.9532 57.4526 79.066C56.1362 79.1788 55.7601 78.2762 55.8729 75.4554L55.9858 72.8979L57.415 72.785C58.7314 72.6722 58.8066 72.597 58.8066 71.3935C58.8066 70.1899 58.7314 70.1147 57.415 70.0019C56.0986 69.889 55.9858 69.7762 55.8729 68.6479C55.7977 68.0085 55.5344 67.4067 55.3088 67.4067C55.0455 67.3691 54.4813 67.2939 54.03 67.2563C53.5786 67.2187 53.0145 67.3691 52.8264 67.5572Z" fill="#06A0F9"/>
<path d="M63.016 70.0787C61.5491 70.6805 60.9473 72.8243 61.173 76.5854C61.3235 79.3686 61.4739 80.0455 62.2261 80.8354C63.016 81.6628 63.3545 81.738 66.5139 81.738C68.4321 81.738 70.5383 81.6252 71.1777 81.5124C72.1932 81.2867 72.3437 81.0986 72.3437 80.0832V78.8796H68.6953C65.1598 78.9172 65.0094 78.8796 64.8966 78.0522C64.7837 77.2248 64.8213 77.2248 68.7329 77.2248H72.7198V74.5544C72.7198 72.1097 72.6446 71.8088 71.629 70.7933C70.5759 69.7402 70.3879 69.7026 67.1909 69.7403C65.3855 69.7403 63.5049 69.8907 63.016 70.0787ZM68.8834 73.5389C68.9962 74.592 68.9586 74.592 66.9276 74.592C64.9718 74.592 64.8213 74.5168 64.8213 73.727C64.8213 72.4858 65.1222 72.2978 67.078 72.4106C68.6201 72.5234 68.7706 72.6363 68.8834 73.5389Z" fill="#06A0F9"/>
<path d="M80.0561 70.2699C79.1534 70.6084 78.514 70.6836 78.4388 70.4579C78.3636 70.2323 77.5361 70.0818 76.6334 70.0818H74.9785V75.9115V81.7411H76.8591H78.7397V77.4535C78.7397 72.7146 78.7397 72.7146 81.5982 72.7146C83.1402 72.7146 83.2907 73.2035 83.2531 77.2278C83.2155 78.9955 83.2154 80.7256 83.2154 81.0641C83.2531 81.5907 83.5916 81.7411 84.9456 81.7411H86.6381V76.4756V71.2101L85.4345 70.4579C84.0053 69.5929 82.1623 69.5177 80.0561 70.2699Z" fill="#06A0F9"/>
<path d="M104.687 70.1896C103.258 70.9042 102.807 72.2206 102.807 75.8312C102.807 79.2914 103.333 81.0591 104.499 81.5104C105.327 81.8113 111.758 81.7361 112.962 81.3976C113.676 81.2095 113.902 80.871 113.977 79.9684L114.015 78.84L110.404 78.8777C106.906 78.9153 106.756 78.8777 106.643 78.0502C106.53 77.2228 106.568 77.2228 110.517 77.2228H114.541L114.391 74.3644C114.278 71.7693 114.165 71.3932 113.225 70.6033C112.285 69.8135 111.796 69.7007 108.9 69.7007C107.019 69.7007 105.214 69.9263 104.687 70.1896ZM110.63 73.537C110.743 74.5901 110.705 74.5901 108.674 74.5901C106.718 74.5901 106.568 74.5148 106.568 73.725C106.568 72.4839 106.869 72.2958 108.824 72.4086C110.367 72.5215 110.517 72.6343 110.63 73.537Z" fill="#06A0F9"/>
<path d="M121.689 70.4529C120.222 71.3555 120.11 71.3555 120.11 70.6409C120.11 70.2272 119.658 70.0768 118.417 70.0768H116.725V75.9064V81.7361H118.417C120.034 81.7361 120.072 81.6985 120.335 80.3821C120.486 79.6299 120.486 77.9374 120.373 76.621C120.072 73.6498 120.523 73.0856 123.156 73.0856H124.999V71.3932C124.999 69.8135 124.924 69.7007 123.984 69.7007C123.382 69.7007 122.366 70.0392 121.689 70.4529Z" fill="#06A0F9"/>
<path d="M16.6855 74.9284C16.6855 79.2536 16.7608 79.8554 17.4754 80.7581C18.1524 81.5855 18.5285 81.7359 20.2963 81.7359C21.4622 81.7359 22.8915 81.4727 23.5309 81.1342C24.584 80.57 24.7344 80.57 25.0353 81.1342C25.261 81.5103 25.9004 81.7359 26.8407 81.7359H28.3451V75.9063V70.0767H26.6526H24.9601V73.9505C24.9601 76.4705 24.8096 77.9749 24.5088 78.2758C24.2455 78.539 23.23 78.7271 22.2521 78.7271H20.4467V74.4019V70.0767H18.5661H16.6855V74.9284Z" fill="#06A0F9"/>
<path d="M30.2129 71.7368C30.2129 72.7899 30.3633 73.0531 31.078 73.166C31.8678 73.2788 31.9054 73.4669 31.9806 76.8518C32.0183 78.8076 32.0559 80.7257 32.0559 81.1018C32.0935 81.666 32.3567 81.7788 33.8988 81.666C35.3281 81.5907 35.6666 81.4403 35.629 80.8761C35.5913 80.5376 35.5537 78.0177 35.5161 75.3474L35.4785 70.458H32.8457H30.2129V71.7368Z" fill="#06A0F9"/>
</svg>
