<svg width="13" height="14" viewBox="0 0 13 14" fill="none" xmlns="http://www.w3.org/2000/svg">
<path d="M11.0008 4.2335L2.10078 13.1335C1.91745 13.3168 1.68411 13.4085 1.40078 13.4085C1.11745 13.4085 0.884115 13.3168 0.700781 13.1335C0.517448 12.9502 0.425781 12.7168 0.425781 12.4335C0.425781 12.1502 0.517448 11.9168 0.700781 11.7335L9.60078 2.8335H2.00078C1.71745 2.8335 1.47995 2.73766 1.28828 2.546C1.09661 2.35433 1.00078 2.11683 1.00078 1.8335C1.00078 1.55016 1.09661 1.31266 1.28828 1.121C1.47995 0.929329 1.71745 0.833496 2.00078 0.833496H12.0008C12.2841 0.833496 12.5216 0.929329 12.7133 1.121C12.9049 1.31266 13.0008 1.55016 13.0008 1.8335V11.8335C13.0008 12.1168 12.9049 12.3543 12.7133 12.546C12.5216 12.7377 12.2841 12.8335 12.0008 12.8335C11.7174 12.8335 11.4799 12.7377 11.2883 12.546C11.0966 12.3543 11.0008 12.1168 11.0008 11.8335V4.2335Z" fill="#808080"/>
</svg>
