<svg width="74" height="45" viewBox="0 0 74 45" fill="none" xmlns="http://www.w3.org/2000/svg">
<rect width="73.8462" height="45" rx="6.92308" fill="#FFFEFC"/>
<path fill-rule="evenodd" clip-rule="evenodd" d="M9.91119 29.6043H10.3224L9.93733 31.2358C9.87862 31.4757 9.89169 31.662 9.96989 31.7819C10.0483 31.9017 10.1917 31.9617 10.407 31.9617C10.6157 31.9617 10.7918 31.9017 10.9289 31.7819C11.0658 31.6618 11.1573 31.4755 11.216 31.2358L11.6009 29.6043H12.0185L11.627 31.2758C11.5421 31.6354 11.3922 31.9085 11.1704 32.0883C10.9551 32.2681 10.668 32.3614 10.3157 32.3614C9.96347 32.3614 9.72199 32.2748 9.59151 32.0948C9.46102 31.9151 9.43488 31.6421 9.51973 31.2826L9.91119 29.6046V29.6043ZM59.4265 32.2879L60.0525 29.6043H61.4812L61.3964 29.9772H60.3853L60.2289 30.6497H61.24L61.1485 31.0293H60.1374L59.9351 31.8947H60.9465L60.8552 32.2877H59.4265V32.2879ZM59.3873 30.2569C59.2958 30.1506 59.185 30.0706 59.0676 30.0238C58.95 29.9706 58.8197 29.944 58.6695 29.944C58.389 29.944 58.1411 30.0371 57.9194 30.2237C57.6976 30.4102 57.554 30.6567 57.4823 30.9561C57.4169 31.2426 57.4431 31.4823 57.5738 31.6754C57.6976 31.8617 57.8932 31.9551 58.1542 31.9551C58.3042 31.9551 58.4544 31.9284 58.6041 31.8685C58.7543 31.8154 58.9045 31.7285 59.0609 31.6155L58.9435 32.1082C58.813 32.1946 58.6761 32.2547 58.5324 32.2947C58.3888 32.3345 58.2452 32.3547 58.0888 32.3547C57.8932 32.3547 57.7169 32.3212 57.5669 32.2545C57.4167 32.188 57.2931 32.0881 57.1949 31.9551C57.0972 31.8285 57.0385 31.6754 57.0124 31.5024C56.9865 31.3292 56.9929 31.1429 57.0452 30.943C57.0908 30.7433 57.169 30.5631 57.2736 30.3901C57.3779 30.2169 57.5148 30.0638 57.6715 29.9374C57.8279 29.8042 57.9976 29.7045 58.1803 29.6378C58.3629 29.5713 58.5454 29.5381 58.7348 29.5381C58.8848 29.5381 59.0217 29.558 59.1524 29.6046C59.2763 29.6514 59.3937 29.7176 59.498 29.811L59.3873 30.2569ZM55.3294 31.2292H56.0403L55.9229 30.6164C55.9164 30.5767 55.9098 30.5298 55.9098 30.4833C55.9031 30.4301 55.9031 30.3768 55.9031 30.3168C55.877 30.3768 55.8511 30.4299 55.8183 30.4833C55.7922 30.5364 55.7662 30.5832 55.7401 30.6232L55.3291 31.2292H55.3294ZM56.2361 32.2879L56.1056 31.5956H55.0879L54.6311 32.2879H54.1942L56.0859 29.498L56.673 32.2879H56.2361ZM52.7916 32.2879L53.4179 29.6043H54.8466L54.7618 29.9772H53.7505L53.5941 30.6431H54.6049L54.5137 31.0228H53.5026L53.209 32.2812H52.7914V32.2879H52.7916ZM51.5586 30.7431H51.6368C51.8585 30.7431 52.0087 30.7164 52.0936 30.663C52.1782 30.6097 52.2371 30.5165 52.2697 30.3765C52.302 30.23 52.2892 30.1235 52.2238 30.0636C52.1589 30.0037 52.0216 29.9702 51.8129 29.9702H51.7345L51.5583 30.7429L51.5586 30.7431ZM51.4542 31.0827L51.1735 32.2812H50.7821L51.4086 29.5978H51.9892C52.1589 29.5978 52.2892 29.6111 52.374 29.6312C52.4651 29.6514 52.5371 29.6912 52.5892 29.7443C52.6545 29.811 52.6935 29.8908 52.713 29.9973C52.7327 30.0975 52.7261 30.2106 52.6999 30.337C52.6479 30.5502 52.5628 30.7234 52.4325 30.843C52.302 30.9629 52.1388 31.0361 51.9431 31.0628L52.5369 32.2809H52.067L51.4994 31.0825H51.4538L51.4542 31.0827ZM48.8773 32.2879L49.5038 29.6043H50.9389L50.8543 29.9772H49.843L49.6866 30.6497H50.6977L50.6066 31.0293H49.5953L49.3932 31.8947H50.4043L50.3129 32.2877H48.8775L48.8773 32.2879ZM48.4273 29.9706L47.8859 32.2812H47.4685L48.01 29.9706H47.3314L47.4162 29.5978H49.1908L49.1061 29.9706H48.4276H48.4273ZM44.1805 32.2879L44.8329 29.498L46.0724 31.1361C46.1052 31.1827 46.1375 31.2295 46.1701 31.2826C46.2027 31.3357 46.2354 31.3959 46.2744 31.4621L46.7118 29.6043H47.0966L46.4441 32.3879L45.1785 30.7164C45.1459 30.6698 45.1131 30.6232 45.0808 30.5764C45.0482 30.5233 45.0221 30.4765 45.0024 30.4166L44.5655 32.2809H44.1807V32.2877L44.1805 32.2879ZM43.1627 32.2879L43.789 29.6043H44.2064L43.5801 32.2879H43.1627ZM40.09 31.7486L40.4617 31.5888C40.4681 31.7086 40.5007 31.8018 40.5727 31.8617C40.6445 31.9216 40.7422 31.9551 40.8727 31.9551C40.9965 31.9551 41.1011 31.9216 41.1924 31.8486C41.2836 31.7753 41.3426 31.6822 41.3685 31.5623C41.4077 31.4025 41.3164 31.2625 41.0947 31.1429C41.0621 31.1227 41.0426 31.1094 41.0227 31.1028C40.7748 30.9563 40.6183 30.8299 40.553 30.7101C40.4879 30.5902 40.4746 30.4502 40.514 30.284C40.5661 30.0643 40.6771 29.891 40.853 29.7513C41.0293 29.6181 41.2249 29.5449 41.46 29.5449C41.6492 29.5449 41.7989 29.5849 41.9099 29.6579C42.0209 29.7314 42.0796 29.8445 42.0991 29.9844L41.734 30.1576C41.7012 30.071 41.662 30.0111 41.61 29.9711C41.5579 29.9313 41.4925 29.9112 41.4141 29.9112C41.3031 29.9112 41.2054 29.9444 41.1272 30.0043C41.0488 30.0643 40.9967 30.1443 40.9706 30.2508C40.9316 30.4107 41.0426 30.5635 41.2967 30.7035C41.3164 30.7168 41.3293 30.7236 41.3426 30.73C41.5643 30.8498 41.7143 30.9699 41.7794 31.0897C41.8448 31.2093 41.8579 31.3493 41.8189 31.5291C41.7599 31.7821 41.6361 31.9818 41.4467 32.1351C41.2577 32.2814 41.0357 32.3617 40.7748 32.3617C40.5596 32.3617 40.3899 32.3081 40.2725 32.2016C40.142 32.0951 40.0833 31.9418 40.09 31.7489V31.7486ZM39.6529 29.9706L39.1114 32.2812H38.6941L39.2355 29.9706H38.5572L38.6416 29.5978H40.4161L40.3312 29.9706H39.6529ZM35.406 32.2879L36.0582 29.498L37.2979 31.1361C37.3305 31.1827 37.3633 31.2295 37.3959 31.2826C37.4282 31.3357 37.461 31.3959 37.5002 31.4621L37.9373 29.6043H38.3221L37.6699 32.3879L36.4043 30.7164C36.3715 30.6698 36.3391 30.6232 36.3063 30.5764C36.2738 30.5233 36.2476 30.4765 36.2281 30.4166L35.791 32.2809H35.4062V32.2877L35.406 32.2879ZM33.501 32.2879L34.1273 29.6043H35.556L35.4711 29.9772H34.46L34.3034 30.6497H35.3145L35.2232 31.0293H34.2121L34.0099 31.8947H35.0212L34.9297 32.2877H33.501V32.2879ZM32.8096 30.9629C32.8096 30.943 32.816 30.8828 32.8291 30.7897C32.8357 30.7098 32.8421 30.6499 32.8488 30.5966C32.8226 30.6567 32.7965 30.7164 32.7639 30.7829C32.7314 30.843 32.6922 30.9095 32.6465 30.9694L31.6418 32.401L31.3157 30.943C31.3027 30.883 31.2896 30.8231 31.283 30.7698C31.2765 30.7166 31.2699 30.6567 31.2699 30.6033C31.2568 30.6567 31.2373 30.7164 31.2178 30.7829C31.1981 30.843 31.1722 30.9095 31.1394 30.9762L30.5523 32.2947H30.1675L31.4265 29.498L31.7854 31.1892C31.7918 31.2159 31.7985 31.2625 31.8051 31.3224C31.8115 31.3826 31.8246 31.4624 31.8377 31.5555C31.8833 31.4757 31.942 31.3826 32.0205 31.2625C32.04 31.2295 32.0594 31.2093 32.0661 31.1892L33.2013 29.498L33.162 32.2947H32.7772L32.81 30.9629H32.8096ZM28.8367 32.2879L29.1238 31.0628L28.6019 29.6111H29.0388L29.3649 30.5235C29.3715 30.55 29.378 30.5767 29.391 30.6164C29.4041 30.6567 29.4107 30.6965 29.4236 30.7363C29.4497 30.6965 29.4759 30.6565 29.502 30.6164C29.5282 30.5767 29.5543 30.5432 29.5802 30.5099L30.3436 29.6111H30.761L29.5412 31.056L29.2541 32.2809H28.8365V32.2877L28.8367 32.2879ZM26.8992 31.2292H27.6101L27.4927 30.6164C27.486 30.5767 27.4796 30.5298 27.4796 30.4833C27.4729 30.4301 27.4729 30.3768 27.4729 30.3168C27.4468 30.3768 27.4207 30.4299 27.3881 30.4833C27.362 30.5364 27.336 30.5832 27.3097 30.6232L26.8987 31.2292H26.8992ZM27.7993 32.2879L27.6688 31.5956H26.651L26.1945 32.2879H25.7574L27.6493 29.498L28.2364 32.2879H27.7993ZM25.1834 30.7232H25.2877C25.5161 30.7232 25.6792 30.6965 25.7704 30.6431C25.8617 30.59 25.9204 30.4968 25.9532 30.3634C25.9855 30.2237 25.966 30.1172 25.9009 30.064C25.8291 30.0041 25.6856 29.9774 25.4705 29.9774H25.3661L25.1834 30.7234V30.7232ZM25.0724 31.0827L24.7919 32.2879H24.4004L25.0267 29.6043H25.6594C25.8486 29.6043 25.9791 29.6177 26.064 29.6376C26.1488 29.6575 26.2142 29.6909 26.2662 29.7441C26.3314 29.804 26.377 29.8906 26.3967 29.9971C26.4162 30.1038 26.4098 30.2169 26.3836 30.3433C26.3511 30.4699 26.3054 30.5898 26.2337 30.6963C26.1619 30.8028 26.077 30.8894 25.9858 30.9493C25.9076 30.9959 25.8227 31.0357 25.7314 31.0558C25.6402 31.0757 25.4966 31.0893 25.3138 31.0893H25.0726V31.0825L25.0724 31.0827ZM21.1777 31.8884H21.53C21.7192 31.8884 21.8691 31.875 21.9737 31.8486C22.0781 31.8221 22.1693 31.7753 22.2542 31.7154C22.3716 31.6288 22.4695 31.5223 22.5477 31.3891C22.6261 31.2625 22.6848 31.1094 22.7238 30.9364C22.7628 30.7632 22.7759 30.6167 22.7564 30.4905C22.7369 30.3636 22.6913 30.2506 22.6128 30.164C22.5541 30.0975 22.4824 30.0575 22.3847 30.0308C22.2867 30.0041 22.1368 29.991 21.9214 29.991H21.6215L21.1777 31.8886V31.8884ZM20.6689 32.2879L21.2954 29.6043H21.8563C22.2216 29.6043 22.4762 29.6242 22.6128 29.6642C22.75 29.7043 22.8672 29.7642 22.9587 29.8574C23.0761 29.9772 23.1545 30.1305 23.1871 30.3101C23.2196 30.4966 23.2066 30.7096 23.1545 30.9427C23.0956 31.1824 23.011 31.3887 22.8935 31.575C22.7761 31.7615 22.6261 31.9081 22.45 32.0279C22.3195 32.1213 22.176 32.1812 22.0193 32.221C21.8694 32.261 21.641 32.2809 21.3408 32.2809H20.6689V32.2877V32.2879ZM18.7574 32.2879L19.3837 29.6043H20.8124L20.7276 29.9772H19.7162L19.5596 30.6497H20.5709L20.4797 31.0293H19.4683L19.2661 31.8947H20.2774L20.1861 32.2877H18.7574V32.2879ZM17.7461 32.2879L18.3724 29.6043H18.7898L18.1635 32.2879H17.7459H17.7461ZM15.8542 32.2879L16.4805 29.6043H17.9092L17.8243 29.9772H16.8132L16.6566 30.6431H17.6677L17.5764 31.0228H16.5651L16.2715 32.2812H15.8539V32.2879H15.8542ZM14.8428 32.2879L15.4691 29.6043H15.8865L15.2602 32.2879H14.8426H14.8428ZM11.9595 32.2879L12.6117 29.498L13.8512 31.1361C13.8838 31.1827 13.9164 31.2295 13.9492 31.2826C13.9817 31.3357 14.0143 31.3959 14.0535 31.4621L14.4906 29.6043H14.8754L14.2232 32.3879L12.9576 30.7164C12.925 30.6698 12.8924 30.6232 12.8596 30.5764C12.8271 30.5233 12.8009 30.4765 12.7814 30.4166L12.3443 32.2809H11.9595V32.2877V32.2879Z" fill="#3A3734"/>
<path fill-rule="evenodd" clip-rule="evenodd" d="M51.8314 27.2679H48.9676L52.9471 12.5986H55.8109L51.8314 27.2679ZM28.0329 26.3489C27.8763 26.9283 27.3544 27.3344 26.7673 27.3344H12.0042C11.5997 27.3344 11.2997 27.1944 11.1039 26.9149C10.9083 26.635 10.8626 26.2888 10.9801 25.8761L14.5812 12.6387H17.4452L14.2289 24.4644H25.6846L28.9007 12.6387H31.7647L28.0332 26.3489H28.0329ZM50.344 13.0581C50.1484 12.7784 49.8416 12.6387 49.4242 12.6387H33.689L32.9128 15.5152H47.2259L46.3909 18.585H34.9418V18.5782H32.078L29.7033 27.3346H32.5672L34.1589 21.4615H47.0303C47.4348 21.4615 47.8132 21.3215 48.1654 21.0421C48.5177 20.7623 48.7527 20.4161 48.8635 20.0032L50.4552 14.1304C50.5791 13.691 50.5401 13.3381 50.3443 13.0583L50.344 13.0581Z" fill="#716D6A"/>
<path fill-rule="evenodd" clip-rule="evenodd" d="M60.756 12.625L64.3768 19.9762L56.7637 27.3275L57.6691 23.9929L61.8327 19.9762L59.8519 15.9547L60.756 12.625Z" fill="#0E8635"/>
<path fill-rule="evenodd" clip-rule="evenodd" d="M58.2121 12.625L61.8327 19.9762L54.2129 27.3275L58.2121 12.625Z" fill="#E97208"/>
</svg>
