<svg width="46" height="45" viewBox="0 0 46 45" fill="none" xmlns="http://www.w3.org/2000/svg">
<rect x="0.333008" width="45" height="45" rx="5.12626" fill="#FFFEFC"/>
<path d="M11.2991 16.0924C10.936 16.0924 10.6317 15.9696 10.386 15.7239C10.1404 15.4783 10.0176 15.1739 10.0176 14.8108V10.9661C10.0176 10.603 10.1404 10.2987 10.386 10.053C10.6317 9.80739 10.936 9.68457 11.2991 9.68457H15.1438C15.5069 9.68457 15.8113 9.80739 16.0569 10.053C16.3026 10.2987 16.4254 10.603 16.4254 10.9661C16.4254 11.3292 16.3026 11.6336 16.0569 11.8792C15.8113 12.1249 15.5069 12.2477 15.1438 12.2477H12.5807V14.8108C12.5807 15.1739 12.4579 15.4783 12.2123 15.7239C11.9666 15.9696 11.6623 16.0924 11.2991 16.0924ZM11.2991 35.3158C10.936 35.3158 10.6317 35.193 10.386 34.9474C10.1404 34.7018 10.0176 34.3974 10.0176 34.0343V30.1896C10.0176 29.8265 10.1404 29.5221 10.386 29.2765C10.6317 29.0308 10.936 28.908 11.2991 28.908C11.6623 28.908 11.9666 29.0308 12.2123 29.2765C12.4579 29.5221 12.5807 29.8265 12.5807 30.1896V32.7527H15.1438C15.5069 32.7527 15.8113 32.8755 16.0569 33.1212C16.3026 33.3668 16.4254 33.6712 16.4254 34.0343C16.4254 34.3974 16.3026 34.7018 16.0569 34.9474C15.8113 35.193 15.5069 35.3158 15.1438 35.3158H11.2991ZM30.5226 35.3158C30.1595 35.3158 29.8551 35.193 29.6095 34.9474C29.3639 34.7018 29.241 34.3974 29.241 34.0343C29.241 33.6712 29.3639 33.3668 29.6095 33.1212C29.8551 32.8755 30.1595 32.7527 30.5226 32.7527H33.0857V30.1896C33.0857 29.8265 33.2085 29.5221 33.4542 29.2765C33.6998 29.0308 34.0042 28.908 34.3673 28.908C34.7304 28.908 35.0348 29.0308 35.2804 29.2765C35.526 29.5221 35.6489 29.8265 35.6489 30.1896V34.0343C35.6489 34.3974 35.526 34.7018 35.2804 34.9474C35.0348 35.193 34.7304 35.3158 34.3673 35.3158H30.5226ZM34.3673 16.0924C34.0042 16.0924 33.6998 15.9696 33.4542 15.7239C33.2085 15.4783 33.0857 15.1739 33.0857 14.8108V12.2477H30.5226C30.1595 12.2477 29.8551 12.1249 29.6095 11.8792C29.3639 11.6336 29.241 11.3292 29.241 10.9661C29.241 10.603 29.3639 10.2987 29.6095 10.053C29.8551 9.80739 30.1595 9.68457 30.5226 9.68457H34.3673C34.7304 9.68457 35.0348 9.80739 35.2804 10.053C35.526 10.2987 35.6489 10.603 35.6489 10.9661V14.8108C35.6489 15.1739 35.526 15.4783 35.2804 15.7239C35.0348 15.9696 34.7304 16.0924 34.3673 16.0924ZM29.8818 31.4712V29.5488H31.8042V31.4712H29.8818ZM29.8818 27.6265V25.7041H31.8042V27.6265H29.8818ZM27.9595 29.5488V27.6265H29.8818V29.5488H27.9595ZM26.0371 31.4712V29.5488H27.9595V31.4712H26.0371ZM24.1148 29.5488V27.6265H26.0371V29.5488H24.1148ZM27.9595 25.7041V23.7818H29.8818V25.7041H27.9595ZM26.0371 27.6265V25.7041H27.9595V27.6265H26.0371ZM24.1148 25.7041V23.7818H26.0371V25.7041H24.1148ZM25.3963 21.2186C25.0332 21.2186 24.7289 21.0958 24.4832 20.8502C24.2376 20.6046 24.1148 20.3002 24.1148 19.9371V14.8108C24.1148 14.4477 24.2376 14.1433 24.4832 13.8977C24.7289 13.6521 25.0332 13.5293 25.3963 13.5293H30.5226C30.8857 13.5293 31.1901 13.6521 31.4357 13.8977C31.6813 14.1433 31.8042 14.4477 31.8042 14.8108V19.9371C31.8042 20.3002 31.6813 20.6046 31.4357 20.8502C31.1901 21.0958 30.8857 21.2186 30.5226 21.2186H25.3963ZM15.1438 31.4712C14.7807 31.4712 14.4764 31.3483 14.2307 31.1027C13.9851 30.8571 13.8623 30.5527 13.8623 30.1896V25.0633C13.8623 24.7002 13.9851 24.3959 14.2307 24.1502C14.4764 23.9046 14.7807 23.7818 15.1438 23.7818H20.2701C20.6332 23.7818 20.9376 23.9046 21.1832 24.1502C21.4288 24.3959 21.5517 24.7002 21.5517 25.0633V30.1896C21.5517 30.5527 21.4288 30.8571 21.1832 31.1027C20.9376 31.3483 20.6332 31.4712 20.2701 31.4712H15.1438ZM15.1438 21.2186C14.7807 21.2186 14.4764 21.0958 14.2307 20.8502C13.9851 20.6046 13.8623 20.3002 13.8623 19.9371V14.8108C13.8623 14.4477 13.9851 14.1433 14.2307 13.8977C14.4764 13.6521 14.7807 13.5293 15.1438 13.5293H20.2701C20.6332 13.5293 20.9376 13.6521 21.1832 13.8977C21.4288 14.1433 21.5517 14.4477 21.5517 14.8108V19.9371C21.5517 20.3002 21.4288 20.6046 21.1832 20.8502C20.9376 21.0958 20.6332 21.2186 20.2701 21.2186H15.1438ZM15.7846 29.5488H19.6293V25.7041H15.7846V29.5488ZM15.7846 19.2963H19.6293V15.4516H15.7846V19.2963ZM26.0371 19.2963H29.8818V15.4516H26.0371V19.2963Z" fill="#808080"/>
</svg>
