<svg width="45" height="45" viewBox="0 0 45 45" fill="none" xmlns="http://www.w3.org/2000/svg">
<rect width="45" height="45" rx="5.12626" fill="#FFFEFC"/>
<mask id="mask0_461_2081" style="mask-type:alpha" maskUnits="userSpaceOnUse" x="7" y="7" width="31" height="31">
<rect x="7.12109" y="7.12109" width="30.7575" height="30.7575" fill="#D9D9D9"/>
</mask>
<g mask="url(#mask0_461_2081)">
<path d="M13.5289 34.034C12.8241 34.034 12.2207 33.783 11.7187 33.2811C11.2168 32.7791 10.9658 32.1757 10.9658 31.4708V13.5289C10.9658 12.8241 11.2168 12.2207 11.7187 11.7187C12.2207 11.2168 12.8241 10.9658 13.5289 10.9658H31.4708C32.1757 10.9658 32.7791 11.2168 33.2811 11.7187C33.783 12.2207 34.034 12.8241 34.034 13.5289V16.7329H31.4708V13.5289H13.5289V31.4708H31.4708V28.2669H34.034V31.4708C34.034 32.1757 33.783 32.7791 33.2811 33.2811C32.7791 33.783 32.1757 34.034 31.4708 34.034H13.5289ZM23.7815 28.9077C23.0766 28.9077 22.4732 28.6567 21.9713 28.1548C21.4693 27.6529 21.2183 27.0494 21.2183 26.3446V18.6552C21.2183 17.9503 21.4693 17.3469 21.9713 16.845C22.4732 16.343 23.0766 16.0921 23.7815 16.0921H32.7524C33.4573 16.0921 34.0607 16.343 34.5626 16.845C35.0646 17.3469 35.3155 17.9503 35.3155 18.6552V26.3446C35.3155 27.0494 35.0646 27.6529 34.5626 28.1548C34.0607 28.6567 33.4573 28.9077 32.7524 28.9077H23.7815ZM32.7524 26.3446V18.6552H23.7815V26.3446H32.7524ZM27.6262 24.4222C28.1601 24.4222 28.614 24.2353 28.9878 23.8616C29.3616 23.4878 29.5485 23.0339 29.5485 22.4999C29.5485 21.9659 29.3616 21.512 28.9878 21.1382C28.614 20.7644 28.1601 20.5775 27.6262 20.5775C27.0922 20.5775 26.6383 20.7644 26.2645 21.1382C25.8907 21.512 25.7038 21.9659 25.7038 22.4999C25.7038 23.0339 25.8907 23.4878 26.2645 23.8616C26.6383 24.2353 27.0922 24.4222 27.6262 24.4222Z" fill="#808080"/>
</g>
</svg>
